<?xml version="1.0" encoding="UTF-8"?>
<svg id="Layer_1" xmlns="http://www.w3.org/2000/svg" version="1.1" viewBox="0 0 221.08 134.68">
  <!-- Generator: Adobe Illustrator 30.3.0, SVG Export Plug-In . SVG Version: 2.1.3 Build 182)  -->
  <defs>
    <style>
      .st0 {
        fill: #fff;
      }
    </style>
  </defs>
  <path class="st0" d="M37.53,99.86c-2.05-.8-3.75-1.65-5.1-2.58s-2.34-1.99-2.98-3.18c-.63-1.2-.92-2.56-.85-4.09.07-1.53.49-3.29,1.26-5.28s1.66-3.6,2.64-4.77c.98-1.17,2.11-1.98,3.38-2.43,1.28-.46,2.72-.57,4.34-.34,1.62.23,3.45.74,5.5,1.53,1.95.76,3.6,1.58,4.94,2.47,1.34.89,2.34,1.92,3,3.11.66,1.19.97,2.55.93,4.11-.04,1.55-.46,3.37-1.27,5.44-.8,2.07-1.71,3.69-2.73,4.87-1.02,1.17-2.17,1.98-3.46,2.4-1.29.43-2.73.52-4.31.27-1.59-.25-3.36-.75-5.31-1.51ZM36.79,90.7l9.32,3.62,1.16-2.99c.39-.99.55-1.75.48-2.27-.06-.52-.5-.93-1.32-1.25l-9.32-3.62-1.17,3.02c-.37.96-.53,1.7-.47,2.23.06.53.5.95,1.31,1.26Z"/>
  <path class="st0" d="M65.92,73.86l-6.34-5.65-3.84,4.31,6.34,5.65-5.11,5.74-17.95-15.98,5.11-5.74,6.34,5.65,3.84-4.31-6.34-5.65,5.11-5.74,17.95,15.98-5.11,5.74Z"/>
  <g>
    <polygon class="st0" points="63.98 56.58 57.85 48.34 63.81 44.05 69.67 52.48 72.05 56.35 66.9 60.06 63.98 56.58"/>
    <path class="st0" d="M70.63,59.79c.88-.63,1.81-.87,2.79-.72.99.15,1.81.69,2.47,1.61.66.92.9,1.87.73,2.85-.17.99-.69,1.79-1.57,2.42-.87.63-1.82.86-2.83.69-1.01-.17-1.84-.69-2.46-1.56-.66-.92-.9-1.87-.72-2.87.18-.99.71-1.8,1.58-2.43Z"/>
  </g>
  <path class="st0" d="M90.66,57.62l-12.66,5.52-9.6-22.03,11.43-4.98c2.12-.92,3.8-1.17,5.06-.74s2.23,1.43,2.91,2.99c.69,1.59.94,2.93.74,4.03-.2,1.1-.72,2-1.58,2.7l.27.63c3.05-.75,5.13.15,6.61,3.54.77,1.76.92,3.38.45,4.85-.46,1.47-1.68,2.64-3.63,3.49ZM79.78,41.88l-2.23.97,1.43,3.29,2.17-.95c.9-.39,1.11-1.14.63-2.23s-1.15-1.46-2.01-1.08ZM83.98,50.08l-2.76,1.2,1.58,3.61,2.7-1.18c1-.44,1.23-1.26.7-2.48-.52-1.19-1.26-1.58-2.22-1.17Z"/>
  <path class="st0" d="M111.33,45.57l5.08,7.46-8.4,1-3.96-6.72-1.66.2.84,7.1-7.64.91-2.84-23.86,12.03-1.43c5.47-.65,8.54,1.81,9.2,7.39.45,3.82-.44,6.47-2.67,7.96ZM102.87,36.63l-1.75.21.57,4.77,1.75-.21c.93-.11,1.59-.29,1.99-.53s.55-.7.47-1.38l-.19-1.59c-.08-.68-.34-1.09-.78-1.23-.44-.14-1.12-.16-2.05-.05Z"/>
  <path class="st0" d="M140.24,59.73l-7.11-3.75,12.52-20.57,8.87,4.68-3.25,12.12.6.32,8.18-9.53,8.9,4.7-9.94,21.93-7.11-3.75,5.12-10.48-.6-.32-7.75,9.1-5.19-2.74,3.11-11.55-.6-.32-5.74,10.16Z"/>
  <path class="st0" d="M175.42,75.6l-4.84-5.97-2.27,1.84,5.93,7.32-4.78,3.88-10.78-13.29,18.67-15.14,10.56,13.02-4.78,3.88-5.72-7.05-2.51,2.04,4.84,5.97-4.33,3.51Z"/>
  <path class="st0" d="M178.05,101.95l-2.95-6.61,6.83-9.32-.28-.62-9.17,4.1-3.14-7.02,21.94-9.81,2.95,6.61-6.83,9.32.28.62,9.17-4.1,3.14,7.02-21.94,9.81Z"/>
  <path class="st0" d="M133.33,46.82l-7.57-1.36-.52,2.87,9.27,1.66-1.09,6.06-16.84-3.02,4.24-23.65,16.51,2.96-1.09,6.06-8.94-1.6-.57,3.18,7.57,1.36-.98,5.49Z"/>
</svg>