<?xml version="1.0" encoding="UTF-8"?>
<svg xmlns="http://www.w3.org/2000/svg" viewBox="409.48 1875.46 258.38 27.6">
<g fill="#fff">
    <path class="st1" d="M413.37,1895.39c.68,2.99,2.74,4.55,6.32,4.55,3.81,0,5.34-1.75,5.34-4.07,0-2.49-1.26-3.83-6.28-5.04-6.24-1.5-8.27-3.67-8.27-7.26,0-3.95,2.92-7.05,8.73-7.05,6.26,0,8.82,3.57,9.17,7.02h-3.88c-.42-2.16-1.75-4-5.42-4-2.97,0-4.65,1.32-4.65,3.65s1.38,3.21,5.82,4.27c7.36,1.78,8.72,4.62,8.72,7.99,0,4.25-3.17,7.5-9.55,7.5s-9.39-3.47-9.94-7.56h3.87Z"/>
    <path class="st1" d="M450,1893.15c0,5.48-3.17,9.91-8.98,9.91-5.49,0-8.78-4.18-8.78-9.84s3.26-9.91,9-9.91c5.3,0,8.76,3.92,8.76,9.83ZM435.97,1893.19c0,4.04,1.97,6.88,5.18,6.88s5.11-2.72,5.11-6.87-1.83-6.9-5.19-6.9-5.11,2.64-5.11,6.88Z"/>
    <path class="st1" d="M469.5,1897.13c0,1.83.02,4.27.04,5.49h-3.54c-.07-.5-.11-1.62-.13-2.7-.96,2.05-2.75,3.14-5.61,3.14-3.31,0-6.24-1.73-6.24-6.92v-12.38h3.62v11.61c0,2.4.75,4.58,3.71,4.58,3.26,0,4.53-1.79,4.53-6.32v-9.87h3.63v13.36Z"/>
    <path class="st1" d="M474.91,1888.52c0-1.63,0-3.3-.04-4.75h3.53c.09.54.15,2.39.14,2.96.73-1.54,2.27-3.41,5.84-3.41s6.29,2.24,6.29,7.2v12.1h-3.64v-11.65c0-2.71-1.03-4.55-3.8-4.55-3.3,0-4.7,2.42-4.7,6.12v10.08h-3.64v-14.1Z"/>
    <path class="st1" d="M512.04,1875.46v21.86c0,1.76,0,3.5.04,5.3h-3.49c-.09-.51-.16-1.87-.18-2.54-.93,1.87-2.78,2.98-5.82,2.98-4.83,0-7.82-3.91-7.82-9.68s3.21-10.06,8.45-10.06c3.22,0,4.7,1.27,5.18,2.29v-10.15h3.64ZM498.53,1893.27c0,4.38,2.02,6.75,4.91,6.75,4.25,0,5.11-3.2,5.11-7.06s-.79-6.61-4.88-6.61c-3.21,0-5.14,2.54-5.14,6.92Z"/>
    <path class="st1" d="M519.24,1897.17c.51,1.95,1.98,3.09,4.42,3.09,2.61,0,3.62-1.1,3.62-2.7s-.85-2.41-4.28-3.24c-5.54-1.35-6.64-3.05-6.64-5.63s1.96-5.38,6.97-5.38,7.01,2.88,7.24,5.49h-3.5c-.25-1.12-1.08-2.74-3.9-2.74-2.46,0-3.21,1.17-3.21,2.33,0,1.32.74,1.97,4.12,2.77,5.83,1.38,6.92,3.33,6.92,6.13,0,3.27-2.57,5.76-7.47,5.76s-7.43-2.52-7.9-5.89h3.61Z"/>
    <path class="st1" d="M544.95,1876.9h10.13c5.58,0,8.08,2.93,8.08,6.45,0,2.97-1.68,4.91-3.61,5.6,1.78.59,4.44,2.4,4.44,6.1,0,4.76-3.65,7.56-8.64,7.56h-10.4v-25.72ZM554.43,1887.49c3.52,0,4.91-1.41,4.91-3.79,0-2.2-1.59-3.7-4.45-3.7h-6.19v7.49h5.73ZM548.7,1899.52h6.1c3.19,0,5.27-1.47,5.27-4.51,0-2.66-1.71-4.43-5.8-4.43h-5.57v8.94Z"/>
    <path class="st1" d="M568.28,1888.89c0-2.49-.02-4.01-.04-5.12h3.57c.05.51.11,2.06.11,3.74.96-2.47,3.16-4.11,6.29-4.19v3.58c-3.85.07-6.29,1.9-6.29,6.74v8.97h-3.64v-13.73Z"/>
    <path class="st1" d="M583.69,1893.88c.02,3.55,1.8,6.19,4.89,6.19,2.83,0,3.72-1.41,4.31-2.74h3.66c-.73,2.39-2.76,5.73-8.07,5.73-5.98,0-8.45-4.78-8.45-9.66,0-5.67,2.86-10.09,8.66-10.09,6.16,0,8.19,4.84,8.19,9,0,.59,0,1.05-.05,1.57h-13.12ZM593.2,1891.41c-.04-2.93-1.46-5.29-4.56-5.29s-4.53,2.2-4.83,5.29h9.39Z"/>
    <path class="st1" d="M600.94,1888.63c0-1.63,0-3.32-.04-4.86h3.5c.05.55.14,1.87.14,2.77.88-1.63,2.5-3.22,5.44-3.22,2.68,0,4.44,1.36,5.15,3.28,1.03-1.74,2.78-3.28,5.97-3.28s5.95,1.85,5.95,6.91v12.39h-3.57v-11.95c0-2.09-.75-4.28-3.54-4.28s-4.14,2.15-4.14,5.4v10.82h-3.57v-11.82c0-2.33-.65-4.38-3.46-4.38s-4.22,2.23-4.22,5.75v10.45h-3.6v-13.99Z"/>
    <path class="st1" d="M634.83,1893.88c.02,3.55,1.8,6.19,4.89,6.19,2.83,0,3.72-1.41,4.31-2.74h3.66c-.73,2.39-2.76,5.73-8.07,5.73-5.98,0-8.45-4.78-8.45-9.66,0-5.67,2.86-10.09,8.66-10.09,6.16,0,8.19,4.84,8.19,9,0,.59,0,1.05-.05,1.57h-13.12ZM644.33,1891.41c-.04-2.93-1.46-5.29-4.56-5.29s-4.53,2.2-4.83,5.29h9.39Z"/>
    <path class="st1" d="M652.1,1888.52c0-1.63,0-3.3-.04-4.75h3.53c.09.54.15,2.39.14,2.96.73-1.54,2.27-3.41,5.84-3.41s6.29,2.24,6.29,7.2v12.1h-3.64v-11.65c0-2.71-1.03-4.55-3.8-4.55-3.3,0-4.7,2.42-4.7,6.12v10.08h-3.64v-14.1Z"/>
  </g>
</svg>
