<?xml version="1.0" encoding="UTF-8"?>
<svg id="_레이어_2" data-name="레이어 2" xmlns="http://www.w3.org/2000/svg" width="2544" height="204" viewBox="0 0 254.4 20.4">
  <g id="Layer_1" data-name="Layer 1">
    <g>
      <path d="M1.6,2.9h1.9v11.1h6.6l-.2,1.6H1.6V2.9Z" fill="#fff"/>
      <path d="M12,2.1h1.8v2.1h-1.8v-2.1ZM12,6.3h1.8v9.3h-1.8V6.3Z" fill="#fff"/>
      <path d="M16.9,15.6v-7.9h-1.5v-1.4h1.5v-1.1c0-1.8.7-3.2,2.8-3.2s.8,0,1.1.1v1.5c-.2,0-.5,0-.8,0-.9,0-1.3.5-1.3,1.8v.9h1.8v1.4h-1.8v7.9h-1.8Z" fill="#fff"/>
      <path d="M23,11.3c0,1.8.9,3.1,2.4,3.1s1.8-.7,2.1-1.4h1.8c-.4,1.2-1.4,2.8-4,2.8s-4.2-2.4-4.2-4.8,1.4-5,4.3-5,4,2.4,4,4.4,0,.5,0,.8h-6.5ZM27.7,10c0-1.4-.7-2.6-2.3-2.6s-2.2,1.1-2.4,2.6h4.6Z" fill="#fff"/>
      <path d="M36,2.1h1.8v2.1h-1.8v-2.1ZM36,6.3h1.8v9.3h-1.8V6.3Z" fill="#fff"/>
      <path d="M41.4,12.9c.3,1,1,1.5,2.2,1.5s1.8-.5,1.8-1.3-.4-1.2-2.1-1.6c-2.7-.7-3.3-1.5-3.3-2.8s1-2.7,3.4-2.7,3.5,1.4,3.6,2.7h-1.7c-.1-.6-.5-1.4-1.9-1.4s-1.6.6-1.6,1.2.4,1,2,1.4c2.9.7,3.4,1.6,3.4,3s-1.3,2.8-3.7,2.8-3.7-1.2-3.9-2.9h1.8Z" fill="#fff"/>
      <path d="M60.9,13.5c0,.9,0,1.8.1,2.1h-1.7c0-.2-.1-.7-.1-1.2-.3.6-1,1.4-2.8,1.4s-3.1-1.4-3.1-2.9c0-2.1,1.6-3,4.4-3h1.5v-.8c0-.8-.3-1.7-1.9-1.7s-1.7.7-1.9,1.4h-1.7c.1-1.4,1-2.8,3.7-2.8,2.3,0,3.6.9,3.6,3.1v4.4ZM59.2,11.1h-1.4c-1.8,0-2.7.5-2.7,1.7s.6,1.6,1.7,1.6c2.1,0,2.4-1.4,2.4-3v-.3Z" fill="#fff"/>
      <path d="M69.2,12.9c.3,1,1,1.5,2.2,1.5s1.8-.5,1.8-1.3-.4-1.2-2.1-1.6c-2.7-.7-3.3-1.5-3.3-2.8s1-2.7,3.4-2.7,3.5,1.4,3.6,2.7h-1.7c-.1-.6-.5-1.4-1.9-1.4s-1.6.6-1.6,1.2.4,1,2,1.4c2.9.7,3.4,1.6,3.4,3s-1.3,2.8-3.7,2.8-3.7-1.2-3.9-2.9h1.8Z" fill="#fff"/>
      <path d="M78.2,11.3c0,1.8.9,3.1,2.4,3.1s1.8-.7,2.1-1.4h1.8c-.4,1.2-1.4,2.8-4,2.8s-4.2-2.4-4.2-4.8,1.4-5,4.3-5,4,2.4,4,4.4,0,.5,0,.8h-6.5ZM82.9,10c0-1.4-.7-2.6-2.3-2.6s-2.2,1.1-2.4,2.6h4.6Z" fill="#fff"/>
      <path d="M86.7,8.8c0-1.2,0-2,0-2.5h1.8c0,.3,0,1,0,1.9.5-1.2,1.6-2,3.1-2.1v1.8c-1.9,0-3.1.9-3.1,3.3v4.4h-1.8v-6.8Z" fill="#fff"/>
      <path d="M93.2,2.1h1.8v2.1h-1.8v-2.1ZM93.2,6.3h1.8v9.3h-1.8V6.3Z" fill="#fff"/>
      <path d="M98.8,11.3c0,1.8.9,3.1,2.4,3.1s1.8-.7,2.1-1.4h1.8c-.4,1.2-1.4,2.8-4,2.8s-4.2-2.4-4.2-4.8,1.4-5,4.3-5,4,2.4,4,4.4,0,.5,0,.8h-6.5ZM103.5,10c0-1.4-.7-2.6-2.3-2.6s-2.2,1.1-2.4,2.6h4.6Z" fill="#fff"/>
      <path d="M108.5,12.9c.3,1,1,1.5,2.2,1.5s1.8-.5,1.8-1.3-.4-1.2-2.1-1.6c-2.7-.7-3.3-1.5-3.3-2.8s1-2.7,3.4-2.7,3.5,1.4,3.6,2.7h-1.7c-.1-.6-.5-1.4-1.9-1.4s-1.6.6-1.6,1.2.4,1,2,1.4c2.9.7,3.4,1.6,3.4,3s-1.3,2.8-3.7,2.8-3.7-1.2-3.9-2.9h1.8Z" fill="#fff"/>
      <path d="M129,10.9c0,2.7-1.6,4.9-4.4,4.9s-4.3-2.1-4.3-4.9,1.6-4.9,4.5-4.9,4.3,1.9,4.3,4.9ZM122.1,10.9c0,2,1,3.4,2.6,3.4s2.5-1.3,2.5-3.4-.9-3.4-2.6-3.4-2.5,1.3-2.5,3.4Z" fill="#fff"/>
      <path d="M131.4,15.6v-7.9h-1.5v-1.4h1.5v-1.1c0-1.8.7-3.2,2.8-3.2s.8,0,1.1.1v1.5c-.2,0-.5,0-.8,0-.9,0-1.3.5-1.3,1.8v.9h1.8v1.4h-1.8v7.9h-1.8Z" fill="#fff"/>
      <path d="M140.8,15.6V2.1h1.8v13.4h-1.8Z" fill="#fff"/>
      <path d="M145.2,2.1h1.8v2.1h-1.8v-2.1ZM145.2,6.3h1.8v9.3h-1.8V6.3Z" fill="#fff"/>
      <path d="M148.6,6.3h1.6v-2.7h1.8v2.7h2v1.4h-2v5.3c0,.9.2,1.3,1,1.3s.5,0,.8,0v1.3c-.4.2-1,.2-1.5.2-1.5,0-2.2-.8-2.2-2.4v-5.7h-1.6v-1.4Z" fill="#fff"/>
      <path d="M154.3,6.3h1.6v-2.7h1.8v2.7h2v1.4h-2v5.3c0,.9.2,1.3,1,1.3s.5,0,.8,0v1.3c-.4.2-1,.2-1.5.2-1.5,0-2.2-.8-2.2-2.4v-5.7h-1.6v-1.4Z" fill="#fff"/>
      <path d="M161.3,15.6V2.1h1.8v13.4h-1.8Z" fill="#fff"/>
      <path d="M166.9,11.3c0,1.8.9,3.1,2.4,3.1s1.8-.7,2.1-1.4h1.8c-.4,1.2-1.4,2.8-4,2.8s-4.2-2.4-4.2-4.8,1.4-5,4.3-5,4,2.4,4,4.4,0,.5,0,.8h-6.5ZM171.6,10c0-1.4-.7-2.6-2.3-2.6s-2.2,1.1-2.4,2.6h4.6Z" fill="#fff"/>
      <path d="M180.9,6.3c1.1,4.2,1.7,6.7,1.9,7.7h0c.2-.9.8-3.1,2-7.7h1.7c1.4,5.1,1.8,6.6,1.9,7.5h0c.2-1,.6-2.4,2-7.5h1.8l-2.9,9.3h-1.9c-.9-3.4-1.7-6.3-1.9-7.4h0c-.2,1-.9,3.7-1.9,7.4h-2l-2.7-9.3h1.9Z" fill="#fff"/>
      <path d="M202.1,10.9c0,2.7-1.6,4.9-4.4,4.9s-4.3-2.1-4.3-4.9,1.6-4.9,4.5-4.9,4.3,1.9,4.3,4.9ZM195.1,10.9c0,2,1,3.4,2.6,3.4s2.5-1.3,2.5-3.4-.9-3.4-2.6-3.4-2.5,1.3-2.5,3.4Z" fill="#fff"/>
      <path d="M204.1,8.6c0-.8,0-1.6,0-2.3h1.7c0,.3,0,1.2,0,1.5.4-.8,1.1-1.7,2.9-1.7s3.1,1.1,3.1,3.6v6h-1.8v-5.8c0-1.3-.5-2.3-1.9-2.3s-2.3,1.2-2.3,3v5h-1.8v-7Z" fill="#fff"/>
      <path d="M222.4,2.1v10.8c0,.9,0,1.7,0,2.6h-1.7c0-.3,0-.9,0-1.3-.5.9-1.4,1.5-2.9,1.5-2.4,0-3.9-1.9-3.9-4.8s1.6-5,4.2-5,2.3.6,2.6,1.1V2.1h1.8ZM215.8,11c0,2.2,1,3.3,2.4,3.3,2.1,0,2.5-1.6,2.5-3.5s-.4-3.3-2.4-3.3-2.5,1.3-2.5,3.4Z" fill="#fff"/>
      <path d="M226.3,11.3c0,1.8.9,3.1,2.4,3.1s1.8-.7,2.1-1.4h1.8c-.4,1.2-1.4,2.8-4,2.8s-4.2-2.4-4.2-4.8,1.4-5,4.3-5,4,2.4,4,4.4,0,.5,0,.8h-6.5ZM231,10c0-1.4-.7-2.6-2.3-2.6s-2.2,1.1-2.4,2.6h4.6Z" fill="#fff"/>
      <path d="M234.8,8.8c0-1.2,0-2,0-2.5h1.8c0,.3,0,1,0,1.9.5-1.2,1.6-2,3.1-2.1v1.8c-1.9,0-3.1.9-3.1,3.3v4.4h-1.8v-6.8Z" fill="#fff"/>
      <path d="M242.4,12.9c.3,1,1,1.5,2.2,1.5s1.8-.5,1.8-1.3-.4-1.2-2.1-1.6c-2.7-.7-3.3-1.5-3.3-2.8s1-2.7,3.4-2.7,3.5,1.4,3.6,2.7h-1.7c-.1-.6-.5-1.4-1.9-1.4s-1.6.6-1.6,1.2.4,1,2,1.4c2.9.7,3.4,1.6,3.4,3s-1.3,2.8-3.7,2.8-3.7-1.2-3.9-2.9h1.8Z" fill="#fff"/>
      <path d="M251.4,11.2l-.2-6.1v-2.2h1.9v2.2l-.2,6.1h-1.5ZM251.2,15.6v-2.6h1.8v2.6h-1.8Z" fill="#fff"/>
    </g>
  </g>
</svg>