<?xml version="1.0" encoding="UTF-8"?>
<svg id="_레이어_2" data-name="레이어 2" xmlns="http://www.w3.org/2000/svg" viewBox="0 0 183.5 13.3">
  <g id="Layer_1" data-name="Layer 1">
    <g>
      <path d="M0,1.1h1.5v3.4h3.3V1.1h1.5v9H0V1.1ZM1.5,5.6v3.2h3.3v-3.2H1.5ZM8.3,0h1.5v13.2h-1.5V0ZM9.5,5.1h2.4v1.3h-2.4v-1.3Z" fill="#fff"/>
      <path d="M13.4.9h5.9v1.2h-4.4v4.2h-1.5V.9ZM13.4,5.7h1.1c.9,0,1.7,0,2.4,0,.7,0,1.3,0,1.9-.1.6,0,1.1-.2,1.7-.3l.2,1.2c-.6.1-1.1.2-1.7.3s-1.2.1-1.9.1c-.7,0-1.5,0-2.5,0h-1.1v-1.2ZM14.5,8.5h8.7v4.8h-1.5v-3.6h-7.2v-1.2ZM21.7,0h1.5v7.8h-1.5V0ZM22.8,3.2h2.3v1.3h-2.3v-1.3Z" fill="#fff"/>
      <path d="M29.1,1c.6,0,1.1.2,1.5.6.4.4.8.9,1,1.6s.3,1.5.3,2.5-.1,1.8-.3,2.5-.6,1.2-1,1.6c-.4.4-.9.6-1.5.6s-1.1-.2-1.5-.6c-.4-.4-.8-.9-1-1.6s-.3-1.5-.3-2.5.1-1.8.3-2.5.6-1.2,1-1.6c.4-.4.9-.6,1.5-.6ZM29.1,2.5c-.3,0-.5.1-.8.4-.2.3-.4.6-.5,1.1s-.2,1.1-.2,1.8,0,1.3.2,1.8.3.9.5,1.1c.2.3.5.4.8.4s.6-.1.8-.4c.2-.3.4-.6.5-1.1s.2-1.1.2-1.8,0-1.3-.2-1.8-.3-.9-.5-1.1c-.2-.3-.5-.4-.8-.4ZM31.5,5h2.4v1.2h-2.4v-1.2ZM33.4.3h1.4v12.3h-1.4V.3ZM36,0h1.4v13.2h-1.4V0Z" fill="#fff"/>
      <path d="M47.3.7c.7,0,1.3.1,1.8.4.5.3.9.6,1.3,1.1.3.5.5,1,.5,1.6s-.2,1.2-.5,1.6c-.3.5-.7.8-1.3,1.1-.5.3-1.1.4-1.8.4s-1.3-.1-1.8-.4c-.5-.3-.9-.6-1.3-1.1s-.5-1-.5-1.6.2-1.2.5-1.6c.3-.5.7-.8,1.3-1.1.5-.3,1.1-.4,1.8-.4ZM46.7,8.1h1.2v.6c0,.6-.1,1.2-.3,1.8-.2.6-.6,1.1-1,1.5-.4.4-1,.8-1.7,1l-.8-1.1c.6-.2,1-.5,1.4-.8.4-.3.7-.7.9-1.2.2-.4.3-.8.3-1.3v-.6ZM47.3,2c-.4,0-.7,0-1,.2-.3.2-.5.4-.7.7-.2.3-.3.6-.3,1s0,.7.3,1,.4.5.7.7.7.2,1,.2.7,0,1-.2.5-.4.7-.7.3-.6.3-1,0-.7-.3-1c-.2-.3-.4-.5-.7-.7-.3-.2-.7-.2-1-.2ZM47.1,8.1h1.1v.6c0,.4,0,.9.2,1.3.2.4.4.8.8,1.2.3.4.8.6,1.3.9l-.6,1.1c-.7-.3-1.2-.6-1.6-1.1s-.7-1-.9-1.6c-.2-.6-.3-1.2-.3-1.8v-.6ZM51.6,8.1h1.1v.6c0,.6,0,1.1-.3,1.7s-.5,1.1-.9,1.6-.9.9-1.6,1.1l-.6-1.1c.5-.2,1-.5,1.3-.9.3-.4.6-.8.8-1.2.2-.4.2-.8.2-1.2v-.6ZM51.9,8.1h1.2v.6c0,.4,0,.9.3,1.3.2.4.5.8.9,1.1s.9.6,1.4.8l-.8,1.1c-.7-.2-1.2-.6-1.7-1s-.8-.9-1-1.5-.3-1.2-.3-1.8v-.6ZM52.9,0h1.5v7.5h-1.5V0Z" fill="#fff"/>
      <path d="M56.9,6.6h12v1.2h-12v-1.2ZM58.3,9h1.5v3h-1.5v-3ZM58.3,11.7h9.3v1.2h-9.3v-1.2ZM58.4.5h1.5v3.9h-1.5V.5ZM58.4,3.8h9.1v1.2h-9.1v-1.2Z" fill="#fff"/>
      <path d="M74.3,10.1l-.2-1.3c.4,0,.9,0,1.4,0s1.1,0,1.7,0,1.2,0,1.8,0c.6,0,1.1,0,1.6-.2v1.1c-.6.1-1.3.2-2.1.3-.8,0-1.6.1-2.3.1s-1.4,0-2,0ZM74.4,1.6h6.1v1.2h-6.1v-1.2ZM75.3,2.4h1.4v6.8h-1.4V2.4ZM78.1,2.4h1.4v6.8h-1.4V2.4ZM81.2.3h1.4v12.3h-1.4V.3ZM82.2,5.2h2.4v1.2h-2.4v-1.2ZM84.1,0h1.4v13.2h-1.4V0Z" fill="#fff"/>
      <path d="M87.6,10.3h12v1.2h-12v-1.2ZM89,1.2h9.1v1.2h-7.6v4.4h-1.5V1.2ZM89,6.2h9.2v1.2h-9.2v-1.2Z" fill="#fff"/>
      <path d="M100.9,6.1h12v1.1h-12v-1.1ZM102.3,8.1h9.1v3h-7.6v1.4h-1.5v-2.4h7.6v-.9h-7.6v-1ZM102.3,12h9.5v1.1h-9.5v-1.1ZM102.4.3h9v2.9h-7.5v1.3h-1.5v-2.3h7.5v-.9h-7.5V.3ZM102.4,4.2h9.2v1.1h-9.2v-1.1Z" fill="#fff"/>
      <path d="M118.3,5.1h12v1.2h-12v-1.2ZM119.7,7.6h9.1v3.2h-7.5v1.5h-1.5v-2.6h7.5v-1h-7.6v-1.2ZM119.7,11.9h9.5v1.2h-9.5v-1.2ZM119.8.2h1.5v3.4h-1.5V.2ZM119.8,2.9h9v1.2h-9v-1.2ZM123.5,5.8h1.5v2.4h-1.5v-2.4Z" fill="#fff"/>
      <path d="M132,1.2h5.9v4.8h-4.4v3.3h-1.5v-4.5h4.4v-2.4h-4.4v-1.2ZM132.1,8.9h1c.8,0,1.5,0,2.1,0,.6,0,1.3,0,1.9-.1s1.2-.1,1.9-.2v1.2c-.5.1-1.2.2-1.8.2s-1.3,0-1.9.1c-.7,0-1.4,0-2.1,0h-1v-1.3ZM138.7,4.9h2.7v1.2h-2.7v-1.2ZM141,0h1.5v13.3h-1.5V0Z" fill="#fff"/>
      <path d="M144.9,10.4h12v1.2h-12v-1.2ZM146.2.9h1.5v2.2h6.3V.9h1.5v6.8h-9.3V.9ZM147.7,4.3v2.2h6.3v-2.2h-6.3ZM150.1,7.4h1.5v3.3h-1.5v-3.3Z" fill="#fff"/>
      <path d="M160.8,1.2h1.2v2.4c0,.7,0,1.4-.2,2.1s-.3,1.3-.6,1.9c-.3.6-.6,1.2-.9,1.6s-.8.9-1.3,1.2l-.9-1.1c.5-.3.9-.6,1.2-1,.3-.4.6-.9.9-1.4.2-.5.4-1,.5-1.6s.2-1.1.2-1.7V1.2ZM161.1,1.2h1.2v2.3c0,.5,0,1.1.2,1.6.1.5.3,1,.5,1.5s.5.9.8,1.3.7.7,1.1,1l-.8,1.2c-.5-.3-.9-.7-1.3-1.2s-.7-1-.9-1.6c-.2-.6-.4-1.2-.5-1.9s-.2-1.3-.2-2V1.2ZM163.4,4.6h2.4v1.2h-2.4v-1.2ZM165.4.3h1.4v12.3h-1.4V.3ZM168.1,0h1.4v13.2h-1.4V0Z" fill="#fff"/>
      <path d="M171.5,10.4h12v1.2h-12v-1.2ZM177.5.8c.9,0,1.8.1,2.5.4.7.3,1.3.7,1.7,1.2.4.5.6,1.1.6,1.8s-.2,1.3-.6,1.8c-.4.5-1,.9-1.7,1.2-.7.3-1.6.4-2.5.4s-1.8-.1-2.5-.4c-.7-.3-1.3-.7-1.7-1.2s-.6-1.1-.6-1.8.2-1.3.6-1.8,1-.9,1.7-1.2c.7-.3,1.6-.4,2.5-.4ZM177.5,2c-.7,0-1.3,0-1.8.3-.5.2-.9.4-1.2.8-.3.3-.4.7-.4,1.2s.1.9.4,1.2.7.6,1.2.8c.5.2,1.1.3,1.8.3s1.3,0,1.8-.3c.5-.2.9-.5,1.2-.8.3-.3.4-.7.4-1.2s-.1-.9-.4-1.2c-.3-.3-.7-.6-1.2-.8-.5-.2-1.1-.3-1.8-.3ZM174.3,6.8h1.5v3.9h-1.5v-3.9ZM179.2,6.8h1.5v3.9h-1.5v-3.9Z" fill="#fff"/>
    </g>
  </g>
</svg>