<?xml version="1.0" encoding="UTF-8"?>
<svg id="_레이어_2" data-name="레이어 2" xmlns="http://www.w3.org/2000/svg" viewBox="0 0 161.7 15.5">
  <g id="Layer_1" data-name="Layer 1">
    <g>
      <path d="M2.8,6.5c0-.3,0-.7,0-.8,0-.1,0-.2.1-.2,0,0,0,0,.1,0s.2,0,.2,0c.1,0,.2.3.2.4,0,.3-.2.6-.2.7s0,3,0,3c0,0,0,0,0,0,0,0,0,.1,0,.2s0,0,0,0c0,0,0,.1,0,.2h.3c0,.1.1.3.1.4s-.3.2-.3.3c0,0-.2,0-.3,0-.3.1-.7.1-.8.2h0c-.4,0-1.3.3-1.6.3s-.5-.3-.5-.4c0-.2.2-.3.2-.5,0-.1-.1-.2-.1-.3,0-.1-.2-4.4-.2-4.5h0c.1-.2.2-.4.4-.4.2,0,.3.2.5.2h0c0,0,0,0,0,0,0,0,0,.8,0,1s0,.1,0,.2c0,.2,0,1.4.1,2.3h0c0,0,.2,0,.3,0h.2c0,0,0,0,0,0h0c.1,0,.3,0,.4,0h.5c0,0,0,0,0-.1v-2.3ZM1,10.4c0,0,0,.2.2.2.3,0,.7-.1.9-.1s0,0,.1,0,.1-.2.2-.2,0,0,0,0c0,0,0-.2.1-.3v-.2c0,0,0-.4,0-.4,0,0,0,0,0,0h-.2c-.1,0-.3,0-.4,0h-.1s-.2,0-.2,0c0,0-.1,0-.2,0h0s0,0,0,0c-.1,0-.1.1-.2.2h0c0,.2,0,.3,0,.4,0,.2-.2.2-.2.3h0ZM6.6,13.5h0c0,0,0,0-.1,0-.2,0-.4,0-.4-.2,0-.1,0-.2,0-.3,0-.2,0-.5-.2-.7,0,0,0-.1,0-.2s0,0,0-.1h0c0-.1.1-.3.1-.3,0,0,0-.2,0-.3s0-.2.1-.2c0,0,0,0,0,0,0,0,0-.1,0-.2s0,0,0,0c0,0,0,0,0-.1,0-.3-.1-.5-.1-.8s0-.2,0-.3c0,0,0-.2,0-.3s0-.3,0-.5,0-.2,0-.2c0-.1,0-.2,0-.3s0-.3,0-.5c.1,0,.2,0,.2-.1h0s0,0,0,0c0,0,0,0,0-.1h0c0-.1,0-.1,0-.1,0,0,0-.1,0-.2,0,0,0,0-.1,0,0,0,0-.1,0-.2,0-.4-.2-.7-.2-1,0,0,0,0,0-.1,0,0,0-.2,0-.3s0-.1,0-.2c0-.2-.1-.6-.1-.9s0-.3.1-.4h.4c0-.1,0-.1.1,0v.2s0,0,0,0h0s.3.7.3.7h0c0,0,0,.2,0,.4s0,.4.1.6c0,.4,0,.7,0,1.1h0c0,0,0,0,0,.1,0,.1,0,.3-.1.5h0c0,0-.1.1-.1.2s0,.2,0,.4,0,.1,0,.1h0c0,.1,0,.7,0,1s-.1.2-.1.4,0,.1,0,.2c0,0,0,.1,0,.3,0,.2.1.5.1.7s0,.2,0,.2c0,.4.1.8.1,1.3s-.2.2-.2.4,0,0,0,.1c0,0,0,.2,0,.3ZM11,6.9c0,0-.3.3-.4.3h-.3c-.3,0-.5-.1-.6-.1h-.2c0,.1-.3,0-.3,0-.1,0-.2,0-.3,0h0c0,.1,0,0,0,0-.2,0-.2.3-.3.4h-.2c0,0-.1,0-.1,0,0,0-.2-.1-.3,0,0,0,0,.1-.2.2,0-.1-.2-.2-.3-.3,0,0-.1,0-.2,0,0-.2.3-.8.4-.9.3,0,.5-.2.8,0,.2,0,.4,0,.6,0h.3c0-.1,0,0,0,0h0c.2,0,.4,0,.7-.1l.8-.2s0,0,.2,0,.3,0,.4,0l.2.4v.2c0,0,0,.1,0,.1l-.3.3h-.2Z" fill="#fff"/>
      <path d="M14.8,5c-.3,0-.6,0-.8,0h-.2s0,0,0,0c0,.3,0,.8,0,1.1,0,.2.2.4.2.5h.3c0,0,.1.1.1.1,0,0,0,0,.1,0h0s0,0,0,0v.2s.1,0,.1,0h.1c.1.1.3.2.5.2h.2c0,.1.1.1.2,0h0c.1,0,.4.1.4-.2h0c0,0,.1,0,.1,0h.4c0,0,.2.1.2.1.1,0,0,.3.1.4,0,.3-.2.2-.2.4-.2,0-.4.1-.7,0h0c0,.1,0,.2,0,.2,0-.3-.2-.2-.3-.2-.2,0-.4,0-.5-.1h-.5c0,0-.1,0-.1,0-.1-.3-.4-.2-.5-.2l-.2-.2h-.1c-.2-.2-.4,0-.5-.1h0c-.1-.2-.3-.5-.3-.7,0-.3,0-.7-.2-.9,0-.3,0-.5,0-.7h-.2c-.1-.2-.4-.3-.3-.4.3,0,.5-.2.8-.2h0s.1.1.1.1c.3-.1.6,0,.9-.2h.2c.2-.2.5,0,.7,0h.5c0,0,.2,0,.2,0,0,0,.3,0,.2.2,0,.2-.4.2-.7.3-.3,0-.4.1-.8,0ZM19.8,11.9h0c.1.4.2.6.2.9,0,0,0,0,0,.2,0,.1,0,.3,0,.4h0c-.2.2-.2.5-.3.5,0,0,0,0,0,0h0c0,0,0,0,0,0,0,0-.2,0-.2-.2h0c0-.3-.2-.3-.3-.5h.1c0,0,0,0,0-.1,0,0,0,0,0-.2h0c0-.2,0-.3,0-.4h-.1s0,0,0,0v-.2h.2c0,0,0-.1,0-.1h0c0,0,.1-.1.1-.1h0c0,0-.1,0-.1,0,0,0-.1-.2-.1-.4h0c0-.1,0-.2,0-.2h0s0,0,0,0c0,0,0,0,0-.1,0,0,0-.2,0-.3s0-.1,0-.2c0,0,0,0-.1,0,0,0,0,0-.1,0s0,0-.1,0c0,0-.1,0-.2,0-.1,0-.3,0-.4,0h0c-.1,0-.2,0-.4,0h0c0,0-.6.1-.6.1v-.2c0,0-.1,0-.2,0-.2,0-.3-.3-.3-.3,0,0,0,0-.1,0,0,0,0,0,0-.1,0-.3.3-.4.6-.4,0,0,0-.1,0-.1s.2,0,.3,0c0,0,0,0,0,0l.5-.2h.3s0,0,.1,0c.1,0,.2,0,.5,0s0,0,.3,0,.2,0,.2,0,.2,0,.2,0h0c.2.1.4.8.4,1.3s0,.4,0,.5h0ZM19.6,9.3h0c0,0,0,0-.1,0-.2,0-.3,0-.4-.1,0,0,0-.1,0-.2,0-.2,0-.4-.2-.5,0,0,0,0,0-.1s0,0,0,0h0c0-.1.1-.2.1-.2,0,0,0-.2,0-.3s0-.1.1-.2c0,0,0,0,0,0,0,0,0,0,0-.1s0,0,0,0c0,0,0,0,0-.1,0-.2-.1-.4-.1-.6s0-.2,0-.2c0,0,0-.1,0-.2s0-.2,0-.4,0-.1,0-.2c0,0,0-.1,0-.2s0-.3,0-.4c0,0,.1,0,.2-.1h0s0,0,0,0c0,0,0,0,0-.1h0c0-.1,0,0,0,0,0,0,0-.1,0-.1,0,0,0,0,0,0,0,0,0,0,0-.1,0-.3-.2-.5-.2-.7,0,0,0,0,0,0,0,0,0-.2,0-.2s0,0,0-.1c0-.2-.1-.5-.1-.7s0-.2,0-.3h.4c0-.1,0,0,0,0v.2s0,0,0,0h0s.3.6.3.6h0c0,0,0,.2,0,.3,0,.2,0,.3.1.5,0,.3,0,.5,0,.9h0s0,0,0,.1c0,.1,0,.3-.1.4h0c0,0-.1.1-.1.2,0,.1,0,.2,0,.3s0,0,0,0h0c0,.1,0,.6,0,.8s-.1.2-.1.3,0,0,0,.1c0,0,0,.1,0,.2,0,.2,0,.4,0,.6s0,.1,0,.2c0,.4.1.6.1,1s-.1.2-.1.3,0,0,0,0c0,0,0,.2,0,.2ZM24.1,4.7c0,0-.3.3-.4.3h-.3c-.3,0-.5-.1-.6-.1h-.2c0,.1-.3,0-.3,0-.1,0-.2,0-.3,0h0c0,.1,0,0,0,0-.2,0-.2.3-.3.4h-.2c0,0-.1,0-.1,0,0,0-.2-.1-.3,0,0,0,0,.1-.2.2,0-.1-.2-.2-.3-.3,0,0-.1,0-.2,0,0-.2.3-.8.4-.9.3,0,.5-.2.8,0,.2,0,.4,0,.6,0h.3c0-.1,0,0,0,0h0c.2,0,.4,0,.7-.1l.8-.2s0,0,.2,0,.3,0,.4,0l.2.4v.2c0,0,0,.1,0,.1l-.3.3h-.2Z" fill="#fff"/>
      <path d="M29.7,8.5c0,.3-.2.5-.4.9h-.2c-.1.2-.3.5-.6.4v.2c0,0-.3-.3-.3-.3,0,.1-.3,0-.4,0h-.2c0,.2,0,.2-.2.2-.2-.2-.7-.3-.7-.6-.1-.1-.1-.4-.2-.7-.2-.1-.2-.3-.2-.5,0-.2,0-.4,0-.6,0-.3.6-.4.6-.6.4-.3.7-.2,1.1-.4.4,0,.6,0,1,0,.2,0,.3.1.5.2,0,.1,0,.2.1.3h0c.1.3,0,.6.2,1v.5ZM28.2,8.6c.2,0,.4-.2.5-.3v-.3c0-.1,0-.2-.1-.4,0-.1-.1-.2-.2-.3h-.4c0-.1-.2,0-.2,0,0,.2-.3.2-.4.4,0,.1,0,.3,0,.4,0,.1,0,.3.1.5h.3c0,.1.4,0,.4,0ZM33.4,7.3c-.3,0-.6,0-.9.2h-.8c0,.2-.3.2-.4.2h-.3s-.2,0-.2,0c-.2,0-.4,0-.4-.3.4,0,.5-.3.9-.4h0s.2,0,.2,0c.3-.2,1.1-.3,1.4-.4h.2c0,0,.3,0,.3,0,0-.1,0-.3,0-.4,0,0,0,0,0-.1,0,0,0-.2,0-.3s0-.1,0-.2c0-.2-.1-.6-.1-.9s0-.3.1-.4h.4c0-.1,0-.1.1,0v.2s0,0,0,0h0s.3.7.3.7h0c0,0,0,.2,0,.4s0,.4.1.6v.2c.1,0,.2,0,.3,0v.2c.1,0,.2.1.1.2,0,.2-.2.3-.4.3v.2h0c0,0,0,0,0,.1,0,.1,0,.3-.1.5h0c0,0-.1.1-.1.2s0,.2,0,.4,0,.1,0,.1h0c0,.1,0,.7,0,1s-.1.2-.1.4,0,.1,0,.2c0,0,0,.1,0,.3,0,.2.1.5.1.7s0,.2,0,.2c0,.4.1.8.1,1.3s-.2.2-.2.4,0,0,0,.1c0,0,0,.2,0,.3h0c0,0,0,0-.1,0-.2,0-.4,0-.4-.2,0-.1,0-.2,0-.3,0-.2,0-.5-.2-.7,0,0,0-.1,0-.2s0,0,0-.1h0c0-.1.1-.3.1-.3,0,0,0-.2,0-.3s0-.2.1-.2c0,0,0,0,0,0,0,0,0-.1,0-.2s0,0,0,0c0,0,0,0,0-.1,0-.3-.1-.5-.1-.8s0-.2,0-.3c0,0,0-.2,0-.3s0-.3,0-.5,0-.2,0-.2c0-.1,0-.2,0-.3s0-.3,0-.5c.1,0,.2,0,.2-.1h0s0,0,0,0c0,0,0,0,0-.1h0c0-.1,0-.1,0-.1,0,0,0-.1,0-.2,0,0,0,0-.1,0h0ZM36.4,3.3s0,0,0,0c0,0,0,0,0,.1h0c0,.1,0,0,0,0v.2c-.1,0-.1.1-.1.1h0c0,.1,0,0,0,0v.2h0c0,0,.2,0,.2,0,0,.1-.1.2-.2.3,0,0,0,0,.1,0h0c0,0,0,0,0-.1s0,0,0,0c0,0,.1.3.1.4,0,.2,0,.4,0,.5s0,.1,0,.1h0s0,.1,0,.1h0s0,0,0,0c0,0,0,.2,0,.2h0s0,0,0,0h0c0,.1,0,.2,0,.2,0,0,0,0,0,0,0,0,.1,0,.1.2s0,.2,0,.3v.3c.1,0,0,.2,0,.2,0,.2.1.4.1.6,0,.2-.1.6-.1.8s.1.3.2.4v.2c0,0,0,.5,0,.5v.2c0,0,.2.7.2.7v.3c-.1,0,0,0,0,0v.5c0,0,0,0,0,.1h0c0,.1-.1.1-.1.1h-.2c0,0,0,.1,0,.1,0,0,0,0,0,0h0c-.2-.2-.3-.9-.3-.9,0-.2,0-.4,0-.6s0-.2,0-.2v-.2s0-.5,0-.5v.2c.1,0,.1-.1.1-.2,0-.4-.2-.5-.2-.8s0-.1,0-.1c-.1-.2,0-.5-.1-.8v-.2c-.1-.2,0-.4,0-.6s0,0,0-.1h0s0,0,0,0c0-.1.2-.3.3-.4v-.2h-.2c0,0,0-.2,0-.2,0,0,0,0,0-.1,0,0,0-.1,0-.2s0,0,0,0h0s-.1-.2-.1-.2h0c0-.1,0-.2,0-.3s0,0-.1,0c0,0,0,0,0,0s0,0,0,0h0s0,0,0,0c0,0,0,0,0,0,0,0,0,.1,0,.1,0,0,0,0,0,0,0,0-.1-.1-.1-.2s0,0,0-.1c0,0,0,0,.1,0,0,0,0-.1,0-.2s0-.1,0-.2h0c0-.1,0-.2,0-.2,0-.2,0-.4.2-.4s.2,0,.3,0h0c0,.1,0,0,0,0Z" fill="#fff"/>
      <path d="M48,7.3c0,.3-.2.5-.4.9h-.2c-.1.2-.3.5-.6.4v.2c0,0-.3-.3-.3-.3,0,.1-.3,0-.4,0h-.2c0,.2,0,.2-.2.2-.2-.2-.7-.3-.7-.6-.1-.1-.1-.4-.2-.7-.2-.1-.2-.3-.2-.5,0-.2,0-.4,0-.6,0-.3.6-.4.6-.6.4-.3.7-.2,1.1-.4.4,0,.6,0,1,0,.2,0,.3.1.5.2,0,.1,0,.2.1.3h0c.1.3,0,.6.2,1v.5ZM46.5,7.4c.2,0,.4-.2.5-.3v-.3c0-.1,0-.2-.1-.4s-.1-.2-.2-.3h-.4c0-.1-.2,0-.2,0,0,.1-.3.2-.4.4,0,.1,0,.3,0,.4,0,.1,0,.3.1.5h.3c0,.1.4,0,.4,0ZM47.8,12.7c-.1,0,0,.3-.2.4v.3c-.2.3-.2.6-.3.7h-.2v.3c0,0-.3,0-.2.1-.3-.1-.4-.2-.6-.4-.3,0,0-.3-.1-.5h.2c0,0,0-.4,0-.4,0-.1.2-.3.2-.3h.1c0-.1,0-.6,0-.6h.2c0,0,0-.4,0-.4h.1c0-.2.1-.5.3-.7h0c0,0,0-.1,0-.1h.1c0-.4.1-.5.2-.6.2,0,.3-.1.5,0,0,0,0,.2,0,.3,0,.1.1.2.1.3,0,0-.2.2-.2.3,0,0,0,.1,0,.2l-.4.3h.3c0,.3-.1.5-.3.8v.2ZM50.7,13.8c0,0,0-.1,0-.1,0,0,0-.1.1-.1h.1s0-.1,0-.1h0s0,0,0,0c-.2-.1-.4,0-.6,0l-.4-.2h0c0-.1-.4-.2-.4-.2-.2,0-.3,0-.4,0h0c-.1,0-.4-.3-.6-.3v-.3c-.1,0,0,0,0,0h0c0-.2,0-.2,0-.2.1-.2.4-.3.5-.2,0,0,0,0,.1.1h.2s0,.2,0,.2c0,0,.2,0,.3.1t0,0c0,0,0,0,.1,0h.1c0,.1,0,.1,0,.1h.2s.1.1.1.1c0,0,0,0,0,0,0,0,.2,0,.3,0,0,0,0,.1.1.2,0,0,.1,0,.3.1,0,0,0,0,0,0l.3-.6c0-.2.2-.4.3-.7,0,0,0,0,.1,0,0,0,0,0,0-.2,0,0,0,0,0-.1,0,0,0,0,0-.1h0s0,0,0,0h0c0,0,0-.2,0-.2h0c0,0,0-.1,0-.1h0c0-.1.1-.3.1-.3h0s0,0,0,0h0c0,0,0,0,.1,0h0c0,.1,0,.2,0,.3h0c0,.3-.1.5-.2.7h0c0,0,0,0-.2,0h0c0,.2-.1.2-.1.2,0,0,0,.2,0,.3,0,0,0,0-.2,0,0,0,0,.1,0,.2h-.2c0,.1.1.2,0,.3,0,0,0,.1-.1.2,0,0,0,.1,0,.2,0,0,0,0,0,0,0,0,0,.1,0,.2.1,0,.2.1.4.2h0c0,0,0,.2,0,.2h.3c0,.1,0,.2,0,.2h0s.1.1.1.1h.3c0,.1,0,.2,0,.2h.2c0,.1,0,0,0,0h0c0,0,.2,0,.2,0h0c.2-.3.3,0,.4,0v.3c0,0-.2.1-.3,0,0,0,0,0,0,0h0c0,0,0,0,0,0t0,0s0,0,0,0h0c0-.1,0-.1,0-.1h0s0,0,0-.1h-.5s0,0,0,0h-.2c0-.1-.4-.3-.4-.3h0c0,0,0-.1,0-.1h0c-.1,0-.2,0-.3,0l-.3-.2s0,0,0,0c0,0,0,0,0,0h0c0,.1-.2.3-.3.4,0,0,0,0,0,.1h0c0,.2-.1.2-.1.2,0,0,0,0,0,.1h0c0,.1,0,.2,0,.3h-.2c0,0,0,.2,0,.2,0,0-.2,0-.2.1,0,0,0,.1,0,.2,0,0,0,0-.1.1,0,0,0,0,0,.1,0,0-.1,0-.2,0,0,0-.1-.1-.2-.2,0,0,0,0,0,0v-.2c0,0,0,0,0,0,0,0,0,0,0-.1h0c0-.2,0-.2,0-.3h0s.1-.2.1-.2h0c0-.1,0-.3,0-.3l.2-.3ZM52,9.6h0c0,0,0,0-.1,0-.2,0-.4,0-.4-.2,0-.1,0-.2,0-.3,0-.2,0-.5-.2-.7,0,0,0-.1,0-.2s0,0,0-.1h0c0-.1.1-.3.1-.3,0,0,0-.2,0-.3s0-.2.1-.2c0,0,0,0,0,0,0,0,0-.1,0-.2s0,0,0,0c0,0,0,0,0-.1,0-.3-.1-.5-.1-.8s0-.2,0-.3c0,0,0-.2,0-.3s0-.3,0-.5,0-.1,0-.2c0-.1,0-.2,0-.3s0-.3,0-.5c.1,0,.2,0,.2-.1h0s0,0,0,0c0,0,0,0,0-.1h0c0-.1,0-.1,0-.1,0,0,0-.1,0-.2,0,0,0,0-.1,0,0,0,0-.1,0-.2,0-.4-.2-.7-.2-1,0,0,0,0,0-.1,0,0,0-.2,0-.3s0-.1,0-.2c0-.2-.1-.6-.1-.9s0-.3.1-.4l.4-.2s0,0,.1.1v.2s0,0,0,0h0s.3.7.3.7h0c0,0,0,.2,0,.4s0,.4.1.6c0,.4,0,.7,0,1.1h0c0,0,0,0,0,.1,0,.1,0,.3-.1.5h0c0,0-.1.1-.1.2s0,.2,0,.4,0,.1,0,.1h0c0,.1,0,.7,0,1s-.1.2-.1.4,0,.1,0,.2c0,0,0,.1,0,.3,0,.2.1.5.1.7s0,.2,0,.2c0,.4.1.8.1,1.3s-.2.2-.2.4,0,0,0,.1c0,0,0,.2,0,.3Z" fill="#fff"/>
      <path d="M59.8,8.1h0c0,0,.4,0,.4,0v-.2c.1,0,.7,0,.7,0h.7c0-.1.6.2.6.2h0c0,.3,0,.4-.2.5h-.2c0,.1,0,.3,0,.3h-.2c-.1,0-.2.1-.4.1h0s-.1,0-.1,0h0c-.4,0-.6,0-1,0h-.2c0,0-.2,0-.3,0h-.2c0,0,0,0,0,0-.1,0-.2,0-.4,0s0,0-.1,0c0,.1-.2,0-.3.2-.1,0-.2,0-.4,0s-.2,0-.3,0c0,0,0-.1-.2-.1v.2s-.2,0-.2,0c0,0,0,0,0,0l-.3.2h0c0-.1-.1,0-.1,0h-.1c0-.1-.2,0-.2,0h-.1s-.2,0-.2,0h0c0,0,0,0,0,0h-.1c0,0-.8.1-.9.1h-.2c-.1,0-.2,0-.3,0,0,0,0,0,0,0v-.2h-.2s.1-.3.1-.3h.4c0,0,0,0,0,0h0c0,0,0,0,0,0h0c0-.1,0-.1,0-.1h.3c0,0,0,0,0,0h.1c0,.1,0,0,0,0h.2c0,0,0,0,0,0h0c.4-.2.9-.3,1.2-.4h0s.1,0,.1,0c.1,0,.2,0,.3,0h.2c0,0,.3,0,.3,0,0,0,.2-.1.4-.1h.3c0,0,.3,0,.3,0h.4s.6-.2.6-.2ZM59,6.8h0c0,.1,0,.2,0,.2,0-.3-.3-.2-.4-.2-.2,0-.4,0-.6-.1h-.6c0,0-.2,0-.2,0-.2-.3-.4-.2-.6-.2l-.2-.2h-.2c-.2-.1-.4-.3-.6-.5h-.1c-.1-.2-.3-.5-.3-.7,0-.3,0-.7-.2-1,0-.4,0-.7.2-1,0,0,0,0,.1,0,0,0,0,0,.2,0h.3c.4.4.3.9.4,1.4,0,.2.2.4.2.5.1,0,.2.8.4.6l.2.2c0,0,0,0,.1,0h0s0,0,0,0v.2s.1,0,.1,0h.2c.1.1.2.2.3.2h.4s.1,0,.1,0h0c0,0,0,0,0,0,.2-.1.4.3.6,0h0c0,0,.1,0,.1,0l.3-.2h.4c0,.1,0,.3,0,.3h0c0,.4-.2.3-.2.5-.2,0-.5.1-.8,0ZM60.2,14.2h0c0,.1,0,.2,0,.2,0-.3-.3-.2-.4-.2-.2,0-.4,0-.6-.1h-.6c0,0-.2,0-.2,0-.2-.3-.4-.2-.6-.2l-.2-.2h-.2c-.2-.1-.4-.3-.6-.5h-.1c-.1-.2-.3-.5-.3-.7,0-.3,0-.7-.2-1,0-.4,0-.7.2-1,0,0,0,0,.1,0s0,0,.2,0h.3c.4.4.3.9.4,1.4,0,.2.2.4.2.5.1,0,.2.4.4.2l.2.2c0,0,0,0,.1,0h0s0,0,0,0v.2s.1,0,.1,0h.2c.2.1.4.6.7.4,0,.1.1,0,.2,0h0c.2,0,.4.2.6-.1h0c0,0,.2,0,.2,0l.3-.2c.1,0,.3.3.4.4.1,0,0,.3.1.4,0,.3-.2.2-.2.4-.2,0-.5.1-.8,0Z" fill="#fff"/>
      <path d="M70.5,5.9c0,0,0-.1.1-.1,0,0,.2,0,.2,0h.1c0,.1.3,0,.3,0,.1,0,.2,0,.3,0h.3c.1-.2.1-.3.4-.3,0,0,0,.1.1.2,0,0,0,0,0,0h.1c0,0,.1,0,.1,0h.1s.2,0,.2,0h.1c0,0,0,0,0,0h.4s0,.1,0,.1h.1s0,0,0,.1h0c-.1,0-.2,0-.2.1h-.1c-.2.1-.6,0-.8,0h0c0,0,0,0,0,0h0c0,0-.2.3-.2.3h.2c0,.3,0,.5,0,.8h0c0,.2,0,.5,0,.6v.7c-.1,0,0,.1,0,.1,0,0-.3,0-.2.2-.3,0-.4,0-.5-.1-.2,0-.1-.3-.2-.4h0c0,0,0-.5,0-.5v-.5s0-.1,0-.1v-.3s0,0,0,0c0-.2,0-.4,0-.6h0c0,0-.3,0-.3,0h-.1q0,0,0,0h0c0,0,0-.1,0-.1h0c0,.1-.1.2-.1.2,0,0,0-.1,0-.1s0,0,0,0h0c-.1,0-.4,0-.6,0,0,0-.1,0-.2,0h-.1c0,0-.2,0-.2-.1,0,0,0,0,0,0,0,0,.2.1.2.2h0c0,0,0,0-.2,0h.1c0,.1,0,.2,0,.2,0,0,0,.2,0,.2,0,0,0,0-.1,0,0,0,0,.1,0,.1h-.1c.1.1.2.2.2.2,0,0,0,.2,0,.2,0,0-.1.1,0,.2h0c0,.2,0,.3.1.4h0c0,0,0,0,0,0h0s0,0,0,0h0c0,0,0,0-.1.2h.2c0,0-.1.3-.1.4h0c0,0,0,.2,0,.2,0,0,0,0,0,.1,0,0,0,0,0,0,0,0,0,0,.1,0h.1c0,0,.3-.1.3-.1.1,0,.2,0,.3,0h.7s0,0,0,0c0,0,0-.1.1-.1,0,0,0,0,.2,0s.1,0,.2,0h0c0,0,.1,0,.1,0h.3s.1,0,.1,0h0c0,0,.1,0,.1,0h.3s0,0,0,0h.1c0,0,.1,0,.1,0h.2c0,0,0,.3,0,.3h0v.5h-.2c-.1,0-.2,0-.3.1h0c-.2,0-.6.1-.8.2h0c0,0,0,0-.1,0h0c0,0-.1,0-.2,0-.1,0-.2,0-.3,0h-.2c0,0-.2,0-.2,0l-.4.2h0s0,0,0,0h0c0,0,0,.1,0,.1h-.1c0,0-.2,0-.2,0h-.4s-.5,0-.5,0c0,0-.2-.1-.2,0,0,0-.1,0-.3,0,0,0-.1,0-.2,0,0,0,0,0,0,.2,0,0-.1,0-.1-.2v-.2s-.1-.1-.1-.1v-.4c0,0,.2-.1.2-.1h0c0,0,.3,0,.3,0,0,0,0,0,0,0,0,0,0,0,.1,0h.2c0,0,.1,0,.2,0h0c0,.1.3,0,.3,0v-.5s0,0,0,0c0,0,0-.1,0-.1h0c0,0-.2-.3-.2-.3,0,0,0-.1,0-.2v-.6c0-.2,0-.4,0-.7,0,0,0,0,.1,0,0,0,0,0-.1-.1,0,0,0,0,0-.1,0,0,0,0,0-.1h0s0,0,0,0h0c0,0-.3-.2-.3-.2h0c-.1,0-.2,0-.3,0s-.1,0-.3,0-.1,0-.2,0c0,0,0,0,0,.1,0,0-.2,0-.2-.2,0-.1.1-.2.1-.4,0,0,0,0,0,0h.3s0,0,0,0c0,0,.1,0,.2,0h.2c0,0,.1,0,.2,0h0c0,.1.3,0,.3,0h.4s.5,0,.5,0ZM79.2,3.3s0,0,0,0c0,0,0,0,0,.1h0c0,.1,0,0,0,0v.2c-.1,0-.1.1-.1.1h0c0,.1,0,0,0,0v.2h0c0,0,.2,0,.2,0,0,.1-.1.2-.2.3,0,0,0,0,.1,0h0c0,0,0,0,0-.1s0,0,0,0c0,0,.1.3.1.4,0,.2,0,.4,0,.5s0,.1,0,.1h0s0,.1,0,.1h0s0,0,0,0c0,0,0,.2,0,.2h0s0,0,0,0h0c0,.1,0,.2,0,.2,0,0,0,0,0,0,0,0,.1,0,.1.2s0,.2,0,.3v.3c.1,0,0,.2,0,.2,0,.2.1.4.1.6,0,.2-.1.6-.1.8s.1.3.2.4v.2c0,0,0,.5,0,.5v.2c0,0,.2.7.2.7v.3c-.1,0,0,0,0,0v.5c0,0,0,0,0,.1h0c0,.1-.1.1-.1.1h-.2c0,0,0,.1,0,.1,0,0,0,0,0,0h0c-.2-.2-.3-.9-.3-.9,0-.2,0-.4,0-.6s0-.2,0-.2v-.2s0-.5,0-.5v.2c.1,0,.1-.1.1-.2,0-.4-.2-.5-.2-.8s0-.1,0-.1c-.1-.2,0-.5-.1-.8v-.2c-.1,0-.1-.1-.1-.1h-.2c0,.1-.2.4-.3.3h-.2c-.2,0-.4,0-.5,0h-.1c0,0-.2,0-.2,0,0,0-.5,0-.6,0h0c0,.1,0,0,0,0-.1,0-.2.3-.3.4h-.2c0,0,0,0,0,0,0,0,0,0,0,0,0,.1,0,.3,0,.4h0c0,0-.1.1-.1.2s0,.2,0,.4,0,.1,0,.1h0c0,.1,0,.7,0,1s-.1.2-.1.4,0,.1,0,.2c0,0,0,.1,0,.3,0,.2.1.5.1.7s0,.2,0,.2c0,.4.1.8.1,1.3s-.2.2-.2.4,0,0,0,.1c0,0,0,.2,0,.3h0c0,0,0,0-.1,0-.2,0-.4,0-.4-.2,0-.1,0-.2,0-.3,0-.2,0-.5-.2-.7,0,0,0-.1,0-.2s0,0,0-.1h0c0-.1.1-.3.1-.3,0,0,0-.2,0-.3s0-.2.1-.2c0,0,0,0,0,0,0,0,0-.1,0-.2s0,0,0,0c0,0,0,0,0-.1,0-.3-.1-.5-.1-.8s0-.2,0-.3c0,0,0-.2,0-.3s0-.3,0-.5,0-.2,0-.2c0-.1,0-.2,0-.3s0-.3,0-.5c.1,0,.2,0,.2-.1h0s0,0,0,0c0,0,0,0,0-.1h0c0-.1,0-.1,0-.1,0,0,0-.1,0-.2,0,0,0,0-.1,0,0,0,0-.1,0-.2,0-.4-.2-.7-.2-1,0,0,0,0,0-.1,0,0,0-.2,0-.3s0-.1,0-.2c0-.2-.1-.6-.1-.9s0-.3.1-.4h.4c0-.1,0-.1.1,0v.2s0,0,0,0h0s.3.7.3.7h0c0,0,0,.2,0,.4s0,.4.1.6v.3c.1,0,.2,0,.3,0,.1,0,.3,0,.4,0h.2c0-.1,0,0,0,0h.4c.2,0,.3,0,.6,0l.6-.2s0,0,.1,0c.1,0,.2,0,.4,0v.3c.2,0,.4-.2.4-.3v-.2h-.2c0,0,0-.2,0-.2,0,0,0,0,0-.1,0,0,0-.1,0-.2s0,0,0,0h0s-.1-.2-.1-.2h0c0-.1,0-.2,0-.3s0,0-.1,0c0,0,0,0,0,0s0,0,0,0h0s0,0,0,0c0,0,0,0,0,0,0,0,0,.1,0,.1,0,0,0,0,0,0,0,0-.1-.1-.1-.2s0,0,0-.1c0,0,0,0,.1,0,0,0,0-.1,0-.2s0-.1,0-.2h0c0-.1,0-.2,0-.2,0-.2,0-.4.2-.4s.2,0,.3,0h0c0,.1,0,0,0,0Z" fill="#fff"/>
      <path d="M87,9.4h0c0,0,.4,0,.4,0v-.2c.1,0,.7,0,.7,0h.7c0-.1.6.2.6.2h0c0,.3,0,.4-.2.5h-.2c0,.1,0,.3,0,.3h-.2c-.1,0-.2.1-.4.1h0s-.1,0-.1,0h0c-.4,0-.6,0-1,0h-.2c0,0-.2,0-.3,0h-.2c0,0,0,0,0,0-.1,0-.2,0-.4,0s0,0-.1,0c0,.1-.2,0-.3.2-.1,0-.2,0-.4,0s-.2,0-.3,0c0,0,0-.1-.2-.1v.2s-.2,0-.2,0c0,0,0,0,0,0l-.3.2h0c0-.1-.1,0-.1,0h-.1c0-.1-.2,0-.2,0h-.1s-.2,0-.2,0h0c0,0,0,0,0,0h-.1c0,0-.8.1-.9.1h-.2c-.1,0-.2,0-.3,0,0,0,0,0,0,0v-.2h-.2s.1-.3.1-.3h.4c0,0,0,0,0,0h0c0,0,0,0,0,0h0c0-.1,0-.1,0-.1h.3c0,0,0,0,0,0h.1c0,.1,0,0,0,0h.2c0,0,0,0,0,0h0c.4-.2.9-.3,1.2-.4h0s.1,0,.1,0c.1,0,.2,0,.3,0h.2c0,0,.3,0,.3,0,0,0,.2-.1.4-.1h.3c0,0,.3,0,.3,0h.4s.6-.2.6-.2ZM83.3,5.6h0c-.1-.4-.2-.6-.2-.9,0,0,0,0,0-.2,0-.1,0-.3,0-.4h0c0-.1-.3-.2-.3-.2h-.2c-.2-.3-.5-.3-.4-.5.4,0,.7-.3,1-.2h.1s.2.1.2.1c.4-.2.8-.1,1.2-.2h.3c.2-.2.6,0,.9,0h.6c.1,0,.2,0,.3.1,0,0,.4,0,.3.3-.1.2-.6.3-.9.4-.4-.1-.6.1-1,0-.4,0-.8,0-1.1.1h-.4c0,.1.2.1.3.4h-.1c0,0,0,0,0,.1,0,0,0,0,0,.2h0c0,.2,0,.3,0,.4h.1s0,0,0,0v.2h-.2c0,0,0,.1,0,.1h0c0,0-.1.1-.1.1h0c0,0,.1,0,.1,0,0,0,.1.2.1.4h0c0,.1,0,.2,0,.2h0s0,0,0,0c0,0,0,0,0,.1,0,0,0,.2,0,.3s0,.1,0,.2c0,0,0,0,.1,0,0,0,0,0,.1,0s0,0,.1,0c0,0,.1,0,.2,0,.1,0,.3,0,.4,0h0c.1,0,.2,0,.4,0h0c0,0,.6-.1.6-.1v.2c0,0,.1,0,.2,0,.2,0,.3.3.3.3,0,0,0,0,.1,0,0,0,0,0,0,.1,0,.3-.3.4-.6.4,0,0,0,.1,0,.1s-.2,0-.3,0c0,0,0,0,0,0h-.5c0,.1-.3.1-.3.1,0,0,0,0-.1,0-.1,0-.2,0-.5,0s0,0-.3,0-.2,0-.2,0-.2,0-.2,0h0c-.2-.1-.4-.8-.4-1.3s0-.4,0-.5h0Z" fill="#fff"/>
      <path d="M96,6.5h0c0,0,.4,0,.4,0v-.2c.1,0,.7,0,.7,0h.7c0-.1.6.2.6.2h0c0,.3,0,.4-.2.5h-.2c0,.1,0,.3,0,.3h-.2c-.1,0-.2.1-.4.1h0s-.1,0-.1,0h0c-.4,0-.6,0-1,0h-.2c0,0-.2,0-.3,0h-.2c0,0,0,0,0,0-.1,0-.2,0-.4,0s0,0-.1,0c0,.1-.2,0-.3.2-.1,0-.2,0-.4,0s-.2,0-.3,0c0,0,0-.1-.2-.1v.2s-.2,0-.2,0c0,0,0,0,0,0l-.3.2h0c0-.1-.1,0-.1,0h-.1c0-.1-.2,0-.2,0h-.1s-.2,0-.2,0h0c0,0,0,0,0,0h-.1c0,0-.8.1-.9.1h-.2c-.1,0-.2,0-.3,0,0,0,0,0,0,0v-.2h-.2s.1-.3.1-.3h.4c0,0,0,0,0,0h0c0,0,0,0,0,0h0c0-.1,0-.1,0-.1h.3c0,0,0,0,0,0h.1c0,.1,0,0,0,0h.2c0,0,0,0,0,0h0c.4-.2.9-.3,1.2-.4h0s.1,0,.1,0c.1,0,.2,0,.3,0h.2c0,0,.3,0,.3,0,0,0,.2-.1.4-.1h.3c0,0,.3,0,.3,0h.4s.6-.2.6-.2ZM94.6,4.5h.4s.4-.1.4-.1h0c0,0,.3,0,.3,0v-.2c0,0,.4,0,.4,0h.7s.5.3.5.3h0c0,.2,0,.3-.2.4h-.1c0,0,0,.2,0,.2h-.1c0,0-.1.1-.3.1s0,0,0,0h0c-.3,0-.5-.1-.8-.1h-.1c0,0-.1-.1-.2-.1s0,0-.1,0c0,0,0,0,0,0,0,0-.2,0-.3,0s0,0,0,0c0,.1-.1.1-.3.2,0,0-.2,0-.3,0s-.2,0-.2,0c0,0,0,0,0,0,0,0,0,0,0,0h0c0,0,0,0,0,0,0,0,0,0,0,0h-.2c0,.1,0,0,0,0h-.1c0,.1,0,0,0,0h-.2c0,0,0,0,0,0h-.1s0,0,0,0h0c0,.1,0,0,0,0h-.1c0,0-.2.1-.2.1h0s0,0,0,0h.1c0,0-.1-.1-.1-.1h0s0,0,0,0h0c0-.1,0-.1,0-.1h0v-.2h0s0,0,0,0c-.1-.1-.2-.3-.2-.4h.1c0,0,0-.2.1-.2,0-.5,0-.7,0-1.2,0-.1.3-.3.5-.4h0v.2c0,0,.2-.1.3-.2,0,0,.2-.1.2-.2h.3c0-.1.3-.3.3-.3v-.3c0,0,0,0,0-.1s0-.1,0-.1c0-.2,0-.4-.1-.5v-.2s-.1-.2-.1-.2h0c0-.1-.5-.2-.5-.2h-.3c0,.1-.2,0-.4,0h-.1s-.4,0-.4,0h-.3c-.1-.1-.2-.2-.2-.4,0,0,0-.1,0-.1,0,0,.2,0,.2,0h0c.2,0,.4,0,.8,0,0,0,.2,0,.3,0h.2c0,0,.1,0,.1,0h.7s0,.1,0,.1h.1c0,.1,0,.2,0,.2h0s0,0,0,0c.2.1.1.4.4.6h0c0,.1,0,.1,0,.1,0,.4,0,.9,0,1.3v.2c0,0,0,.1,0,.1h-.2c0,0-.3.2-.3.2v.2c0,0,0,0,0,0l-.2.2-.4.2h-.2s-.1,0-.1,0v.2c-.1,0-.1.2-.1.2h.2c0,0,0,.2,0,.2.1,0,.2.2.4.3h.1,0c0,0,.2,0,.2,0,0,0,.2,0,.3.1h.1c0,0,0,0,0,0h0s0,0,0,0h0c0,0,0,0,0,0v-.2ZM96.3,14.1h.4s.5-.1.5-.1h0c0,0,.3,0,.3,0v-.2c0,0,.4,0,.4,0h.7c0,0,.5.3.5.3h0c0,.2,0,.4-.2.4h-.1c0,.1,0,.3,0,.3h-.1c-.1,0-.2.2-.3.2s0,0,0,0h0c-.3,0-.5-.1-.8-.1h-.1c0,0-.1-.1-.2-.1s0,0-.1.1c0,0,0,0,0,0,0,0-.2,0-.3,0s0,0-.1,0c0,.1-.1.1-.3.2,0,0-.2,0-.3,0s-.2,0-.2,0c0,0,0,0,0,0,0,0,0,0-.1,0h0c0,.1,0,0,0,0,0,0,0,0,0,0l-.2.2h0c0-.1-.1,0-.1,0h0c0-.1-.2,0-.2,0h0c0,0-.1,0-.1,0h0c0,0,0,0,0,0h-.1c0,0-.1,0-.1,0h-.2s0,0,0,0h0c0,0,.1-.2.1-.2h-.1s0,0,0,0h0s0,0,0,0h0c0-.1,0-.2,0-.2h0v-.2h0c0,0,0,0,0,0-.1-.1-.2-.3-.2-.4h.1c0-.1,0-.2.2-.3,0-.5,0-.8,0-1.4,0-.2.3-.3.5-.5v.2c0,0,0,.1,0,.1,0,0,.2-.1.3-.2,0,0,.2-.1.3-.2h.3c0-.1.3-.3.3-.3v-.3c0,0,0-.1,0-.2,0,0,0-.1,0-.1,0-.2,0-.4-.1-.6v-.2s-.1-.3-.1-.3h0c0-.1-.5-.2-.5-.2l-.4.2c0,0-.2,0-.4,0-.2,0-.4,0-.6,0-.3,0-.4,0-.4,0h-.3c-.1-.1-.2-.3-.2-.4,0,0,0-.1,0-.1,0,0,.2,0,.2,0s0,0,0,0c.2,0,.8,0,1.2,0,.1,0,.2,0,.3,0h.2c0,.1.1,0,.1,0,.1,0,.8,0,.8,0h0c0,.1,0,.1,0,.1h0c0,.1,0,.2,0,.2h0c0,0,0,0,0,0,.3.1,0,.5.4.7h0c0,.1,0,.1,0,.1,0,.5,0,1,0,1.5v.2c0,0,0,.1,0,.2h-.2c0,.1-.3.2-.3.2v.2c0,0,0,0,0,0l-.2.2-.4.2h-.2s-.1.1-.1.1l-.2.3v.2h.3c0,0,0,.3,0,.3.1,0,.3.3.5.3h.1,0c0,0,.2,0,.2,0,.1,0,.2.1.3.1h.1c0,0,0,0,0,0s0,0,0,0h0s0,0,0,0h0s.1-.2.1-.2Z" fill="#fff"/>
      <path d="M113.4,14.1h.4s.5-.1.5-.1h0c0,0,.3,0,.3,0v-.2c0,0,.4,0,.4,0h.7c0,0,.5.3.5.3h0c0,.2,0,.4-.2.4h-.1c0,.1,0,.3,0,.3h-.1c-.1,0-.2.2-.3.2s0,0,0,0h0c-.3,0-.5-.1-.8-.1h-.1c0,0-.1-.1-.2-.1s0,0-.1.1c0,0,0,0,0,0,0,0-.2,0-.3,0s0,0-.1,0c0,.1-.1.1-.3.2,0,0-.2,0-.3,0s-.2,0-.2,0c0,0,0,0,0,0,0,0,0,0-.1,0h0c0,.1,0,0,0,0,0,0,0,0,0,0l-.2.2h0c0-.1-.1,0-.1,0h0c0-.1-.2,0-.2,0h0c0,0-.1,0-.1,0h0c0,0,0,0,0,0h-.1c0,0-.1,0-.1,0h-.2s0,0,0,0h0c0,0,.1-.2.1-.2h-.1s0,0,0,0h0s0,0,0,0h0c0-.1,0-.2,0-.2h0v-.2h0c0,0,0,0,0,0-.1-.1-.2-.3-.2-.4h.1c0-.1,0-.2.2-.3,0-.5,0-.8,0-1.4,0-.2.3-.3.5-.5v.2c0,0,0,.1,0,.1,0,0,.2-.1.3-.2,0,0,.2-.1.3-.2h.3c0-.1.3-.3.3-.3v-.3c0,0,0-.1,0-.2,0,0,0-.1,0-.1,0-.2,0-.4-.1-.6v-.2s-.1-.3-.1-.3h0c0-.1-.5-.2-.5-.2l-.4.2c0,0-.2,0-.4,0-.2,0-.4,0-.6,0-.3,0-.4,0-.4,0h-.3c-.1-.1-.2-.3-.2-.4,0,0,0-.1,0-.1,0,0,.2,0,.2,0s0,0,0,0c.2,0,.8,0,1.2,0,0-.1.1-.3.1-.4h0v-.5c0,0,0-.2,0-.2v-.6c0,0,0,0,0-.1,0,0,0-.1,0-.2s0-.1,0-.2,0,0,0,0c0,0,0,0,0,0v.2s-.2,0-.2,0c0,0,0,0,0,0l-.3.2h0c0-.1-.1,0-.1,0h-.1c0-.1-.2,0-.2,0h-.1s-.2,0-.2,0h0c0,0,0,0,0,0h-.1c0,0-.8.1-.9.1h-.2c-.1,0-.2,0-.3,0,0,0,0,0,0,0v-.2h-.2s.1-.3.1-.3h.4c0,0,0,0,0,0h0c0,0,0,0,0,0h0c0-.1,0-.1,0-.1h.3c0,0,0,0,0,0h.1c0,.1,0,0,0,0h.2c0,0,0,0,0,0h0c.4-.2.9-.3,1.2-.4h0s.1,0,.1,0c.1,0,.2,0,.3,0h.2c0,0,.3,0,.3,0,0,0,.2-.1.4-.1h.3c0,0,.3,0,.3,0h.4s.6-.2.6-.2h0c0,0,.4,0,.4,0v-.2c.1,0,.7,0,.7,0h.7c0-.1.6.2.6.2h0c0,.3,0,.4-.2.5h-.2c0,.1,0,.3,0,.3h-.2c-.1,0-.2.1-.4.1h0s-.1,0-.1,0h0c-.4,0-.6,0-1,0h-.2c0,0-.2,0-.3,0h-.2c0,0,0,0,0,0-.1,0-.2,0-.4,0s0,0-.1,0c0,.1-.2,0-.3.2h-.1s0,0,0,0c0,0,0,.2,0,.3v.5c0,0,0,.2,0,.2,0,.1,0,.2,0,.3,0,.1,0,.4-.1.5v.2c0,0,0,0,0,0,.2,0,.7,0,.7,0h0c0,.1,0,.1,0,.1h0c0,.1,0,.2,0,.2h0c0,0,0,0,0,0,.3.1,0,.5.4.7h0c0,.1,0,.1,0,.1,0,.5,0,1,0,1.5v.2c0,0,0,.1,0,.2h-.2c0,.1-.3.2-.3.2v.2c0,0,0,0,0,0l-.2.2-.4.2h-.2s-.1.1-.1.1l-.2.3v.2h.3c0,0,0,.3,0,.3.1,0,.3.3.5.3h.1,0c0,0,.2,0,.2,0,.1,0,.2.1.3.1h.1c0,0,0,0,0,0s0,0,0,0h0s0,0,0,0h0s.1-.2.1-.2ZM112.5,4.5h0c0,.1,0,.2,0,.2,0-.3-.3-.2-.4-.2-.2,0-.4,0-.6-.1h-.6c0,0-.2,0-.2,0-.2-.3-.4-.2-.6-.2l-.2-.2h-.2c-.2-.1-.4-.3-.6-.5h-.1c-.1-.2-.3-.5-.3-.7,0-.3,0-.7-.2-1,0-.4,0-.7.2-1,0,0,0,0,.1,0,0,0,0,0,.2,0h.3c.4.4.3.9.4,1.4,0,.2.2.4.2.5.1,0,.2.8.4.6l.2.2c0,0,0,0,.1,0h0s0,0,0,0v.2s.1,0,.1,0h.2c.1.1.2.2.3.2h.4s.1,0,.1,0h0c0,0,0,0,0,0,.2-.1.4.3.6,0h0c0,0,.1,0,.1,0l.3-.2h.4c0,.1,0,.3,0,.3h0c0,.4-.2.3-.2.5-.2,0-.5.1-.8,0Z" fill="#fff"/>
      <path d="M121.2,9.8h-.1c0,0,0,0,0,0h0c0,0,0,0,0,0h0c0,0,0,.1,0,.1-.1,0-.2.1-.3.1s0,0,0,0h-.2s-.4,0-.4,0h-.4c0,0-.2,0-.3,0s-.1,0-.1,0h-.1c0,.1,0,0,0,0,0,0-.2.2-.4.2h0c-.5-.1-1-.5-1-.8h.1c0-.1,0-.3.1-.3-.1-.5-.1-.8-.1-1.3,0,0,0-.2.2-.2,0,0,0,0,.1,0h.1c0,0,0,0,0,0h0c.1-.3.2-.7.2-.8h.2c0-.2,0-.2,0-.3v-.2c0,0,0-.1,0-.2,0-.2,0-.4-.2-.6v-.2s-.2-.3-.2-.3h0s-.3-.4-.3-.4c-.2,0-.4,0-.5,0s-.1,0-.1,0c0-.2-.2-.3-.2-.4s0-.1,0-.1.2,0,.2,0,0,0,0,0c.2.1.9.3,1,.4,0,0,0,.2,0,.2h.2c0,.1,0,.2,0,.2h0c0,0,0,0,0,0,.3.1.1.5.5.7h0c0,.1,0,.1,0,.1,0,.5,0,1,0,1.5v.2c0,0,0,.3-.1.3h0c0,0-.1,0-.1,0h0c-.2,0-.4.4-.5.6h0c0,0-.1.1-.1.1,0,0,0,.2-.1.3v.2s.3,0,.3,0v.2c.2,0,.3.3.5.3s0,0,.1,0h0c0,0,.4,0,.4,0,.1,0,.5,0,.6,0h.4c0,.1,0,0,0,0s0,0,0,0h0s0,0,0,0h0s0,0,0,0h0c0,0,0,0,0,0,0,0,0,0,0,0,0,0,.1.2.1.2,0,.2-.3,0-.4.1,0,0,0,0,0,0ZM124.5,7.3c-.3,0-.6,0-.9.2h-.8c0,.2-.3.2-.4.2h-.3s-.2,0-.2,0c-.2,0-.4,0-.4-.3.4,0,.5-.3.9-.4h0s.2,0,.2,0c.3-.2,1.1-.3,1.4-.4h.2c.1-.2.5,0,.9,0l.4-.2h.2c0,0,.2,0,.3,0,0-.1,0-.2,0-.3s0-.2,0-.2c0-.1,0-.2,0-.3s0-.3,0-.5c.1,0,.2,0,.2-.1h0s0,0,0,0c0,0,0,0,0-.1h0c0-.1,0-.1,0-.1,0,0,0-.1,0-.2,0,0,0,0-.1,0,0,0,0-.1,0-.2,0-.4-.2-.7-.2-1,0,0,0,0,0-.1,0,0,0-.2,0-.3s0-.1,0-.2c0-.2-.1-.6-.1-.9s0-.3.1-.4h.4c0-.1,0-.1.1,0v.2s0,0,0,0h0s.3.7.3.7h0c0,0,0,.2,0,.4s0,.4.1.6c0,.4,0,.7,0,1.1h0c0,0,0,0,0,.1,0,.1,0,.3-.1.5h0c0,0-.1.1-.1.2s0,.2,0,.4,0,.1,0,.1h0c0,.1,0,.7,0,1s-.1.2-.1.4,0,.1,0,.2c0,0,0,.1,0,.3,0,.2.1.5.1.7s0,.2,0,.2c0,.4.1.8.1,1.3s-.2.2-.2.4,0,0,0,.1c0,0,0,.2,0,.3h0c0,0,0,0-.1,0-.2,0-.4,0-.4-.2,0-.1,0-.2,0-.3,0-.2,0-.5-.2-.7,0,0,0-.1,0-.2s0,0,0-.1h0c0-.1.1-.3.1-.3,0,0,0-.2,0-.3s0-.2.1-.2c0,0,0,0,0,0,0,0,0-.1,0-.2s0,0,0,0c0,0,0,0,0-.1,0-.3-.1-.5-.1-.8h0c-.1,0-.3,0-.5.1-.4,0-.5.2-1,0Z" fill="#fff"/>
      <path d="M134.3,9.4h0c0,0,.4,0,.4,0v-.2c.1,0,.7,0,.7,0h.7c0-.1.6.2.6.2h0c0,.3,0,.4-.2.5h-.2c0,.1,0,.3,0,.3h-.2c-.1,0-.2.1-.4.1h0s-.1,0-.1,0h0c-.4,0-.6,0-1,0h-.2c0,0-.2,0-.3,0h-.2c0,0,0,0,0,0-.1,0-.2,0-.4,0s0,0-.1,0c0,.1-.2,0-.3.2-.1,0-.2,0-.4,0s-.2,0-.3,0c0,0,0-.1-.2-.1v.2s-.2,0-.2,0c0,0,0,0,0,0l-.3.2h0c0-.1-.1,0-.1,0h-.1c0-.1-.2,0-.2,0h-.1s-.2,0-.2,0h0c0,0,0,0,0,0h-.1c0,0-.8.1-.9.1h-.2c-.1,0-.2,0-.3,0,0,0,0,0,0,0v-.2h-.2s.1-.3.1-.3h.4c0,0,0,0,0,0h0c0,0,0,0,0,0h0c0-.1,0-.1,0-.1h.3c0,0,0,0,0,0h.1c0,.1,0,0,0,0h.2c0,0,0,0,0,0h0c.4-.2.9-.3,1.2-.4h0s.1,0,.1,0c.1,0,.2,0,.3,0h.2c0,0,0,0,0,0,0,0,0,0,0,0s0-.2,0-.3v-.5c0,0,0-.2,0-.2,0-.1,0-.2,0-.3,0-.2,0-.4.1-.5v-.2c0-.1.2-.2.3-.3h.2c0,0,.2,0,.2,0,.1,0,.1,0,.1.2s-.1.3-.1.5h0v.5c0,0,0,.2,0,.2v.6c0,0,0,0,0,.1,0,0,0,.1,0,.2h0c0,0,.2,0,.2,0h.3c0,0,.4,0,.4,0l.6-.2ZM132.7,3.1c0-.3,0-.7,0-.8,0-.1,0-.2.1-.2,0,0,0,0,.1,0s.2,0,.2,0c.1,0,.2.3.2.4,0,.3-.2.6-.2.7,0,0,0,2,0,2,0,0,0,0,0,0,0,0,0,.1,0,.2s0,0,0,0c0,0,0,.1,0,.2h.3c0,.1.1.3.1.4s-.3.2-.3.3c0,0-.2,0-.3,0-.3.1-.7.1-.8.2h0c-.4,0-1.3.3-1.6.3s-.5-.3-.5-.4c0-.2.2-.3.2-.5,0-.1-.1-.2-.1-.3,0-.1-.2-3.4-.2-3.6h0c.1-.2.2-.4.4-.4.2,0,.3.2.5.2h0c0,0,0,0,0,0,0,0,0,.8,0,1s0,.1,0,.2c0,.2,0,.8.1,1.3,0,0,0,0,0,0,0,0,.2,0,.3,0h.2c0,0,0,0,0,0h0c.1,0,.3,0,.4,0h.5c0,0,0-.1,0-.1v-1.4ZM130.9,6.1c0,0,0,.2.2.2.3,0,.7-.1.9-.1s0,0,.1,0,.1-.2.2-.2,0,0,0,0c0,0,0-.2.1-.3v-.2c0,0,0-.4,0-.4,0,0,0,0,0,0h-.2c-.1,0-.3,0-.4,0h-.1s-.2,0-.2,0c0,0-.1,0-.2,0h0s0,0,0,0c-.1,0-.1.1-.2.2h0c0,.2,0,.3,0,.4,0,.2-.2.2-.2.3h0Z" fill="#fff"/>
      <path d="M139.2,9.2c-.1,0,0,.3-.2.4v.3c-.2.3-.2.6-.3.7h-.2v.3c0,0-.3,0-.2.1-.3-.1-.4-.2-.6-.4-.3,0,0-.3-.1-.5h.2c0,0,0-.4,0-.4,0-.1.2-.3.2-.3h.1c0-.1,0-.6,0-.6h.2c0,0,0-.4,0-.4h.1c0-.1,0-.3.2-.5,0,0,0-.1.1-.3,0,0,.1-.2.2-.3,0-.2,0-.4.1-.4h0c0,0,0-.1,0-.1h.1c0-.4.1-.5.2-.6.2,0,.3-.1.5,0,0,0,0,.2,0,.3,0,.1.1.2.1.3,0,0-.2.2-.2.3,0,0,0,.2-.2.4,0,0-.1.2-.1.2,0,.2,0,.3,0,.3l-.4.3h.3c0,.3-.1.5-.3.8v.2ZM144.2,10.7h-.2s0,0,0,0h-.2c0-.1-.4-.3-.4-.3h0c0,0,0-.1,0-.1h0c-.1,0-.2,0-.3,0l-.3-.2c-.1,0-.3-.1-.4-.1,0,0,0,0,0,0-.2-.1-.4,0-.6,0l-.4-.2h0c0-.1-.4-.2-.4-.2-.2,0-.3,0-.4,0h0c-.1,0-.4-.3-.6-.3v-.3c-.1,0,0,0,0,0h0c0-.2,0-.2,0-.2.1-.2.4-.3.5-.2,0,0,0,0,.1.1h.2s0,.2,0,.2c0,0,.2,0,.3.1t0,0c0,0,0,0,.1,0h.1c0,.1,0,.1,0,.1h.2s.1.1.1.1c0,0,0,0,0,0,0,0,.2,0,.3,0,0,0,0,.1.1.2,0,0,.1,0,.3.1.4,0,.5.2.8.4h0c0,0,0,.1,0,.1h.3c0,.1,0,.2,0,.2h0s.1.1.1.1l.3.2h0c0,0,.2.2.2.2h0s0,0,0,0h.2c0,0,0,0,0,0,.2-.1.3.1.4.1v.3c0,0-.2.1-.3,0,0,0,0,0,0,0h0c0,0,0,0,0,0t0,0s0,0,0,0h0c0-.1,0-.1,0-.1h0s0,0,0-.1h-.3ZM145.6,7.3c-.3,0-.6,0-.9.2h-.8c0,.2-.3.2-.4.2h-.3s-.2,0-.2,0c-.2,0-.4,0-.4-.3.4,0,.5-.3.9-.4h0s.2,0,.2,0c.3-.2,1.1-.3,1.4-.4h.2c0,0,.3,0,.3,0,0-.1,0-.3,0-.4,0,0,0,0,0-.1,0,0,0-.2,0-.3s0-.1,0-.2c0-.2-.1-.6-.1-.9s0-.3.1-.4h.4c0-.1,0-.1.1,0v.2s0,0,0,0h0s.3.7.3.7h0c0,0,0,.2,0,.4s0,.4.1.6v.2c.1,0,.2,0,.3,0v.2c.1,0,.2.1.1.2,0,.2-.2.3-.4.3v.2h0c0,0,0,0,0,.1,0,.1,0,.3-.1.5h0c0,0-.1.1-.1.2s0,.2,0,.4,0,.1,0,.1h0c0,.1,0,.7,0,1s-.1.2-.1.4,0,.1,0,.2c0,0,0,.1,0,.3,0,.2.1.5.1.7s0,.2,0,.2c0,.4.1.8.1,1.3s-.2.2-.2.4,0,0,0,.1c0,0,0,.2,0,.3h0c0,0,0,0-.1,0-.2,0-.4,0-.4-.2,0-.1,0-.2,0-.3,0-.2,0-.5-.2-.7,0,0,0-.1,0-.2s0,0,0-.1h0c0-.1.1-.3.1-.3,0,0,0-.2,0-.3s0-.2.1-.2c0,0,0,0,0,0,0,0,0-.1,0-.2s0,0,0,0c0,0,0,0,0-.1,0-.3-.1-.5-.1-.8s0-.2,0-.3c0,0,0-.2,0-.3s0-.3,0-.5,0-.2,0-.2c0-.1,0-.2,0-.3s0-.3,0-.5c.1,0,.2,0,.2-.1h0s0,0,0,0c0,0,0,0,0-.1h0c0-.1,0-.1,0-.1,0,0,0-.1,0-.2,0,0,0,0-.1,0h0ZM148.6,3.3s0,0,0,0c0,0,0,0,0,.1h0c0,.1,0,0,0,0v.2c-.1,0-.1.1-.1.1h0c0,.1,0,0,0,0v.2h0c0,0,.2,0,.2,0,0,.1-.1.2-.2.3,0,0,0,0,.1,0h0c0,0,0,0,0-.1s0,0,0,0c0,0,.1.3.1.4,0,.2,0,.4,0,.5s0,.1,0,.1h0s0,.1,0,.1h0s0,0,0,0c0,0,0,.2,0,.2h0s0,0,0,0h0c0,.1,0,.2,0,.2,0,0,0,0,0,0,0,0,.1,0,.1.2s0,.2,0,.3v.3c.1,0,0,.2,0,.2,0,.2.1.4.1.6,0,.2-.1.6-.1.8s.1.3.2.4v.2c0,0,0,.5,0,.5v.2c0,0,.2.7.2.7v.3c-.1,0,0,0,0,0v.5c0,0,0,0,0,.1h0c0,.1-.1.1-.1.1h-.2c0,0,0,.1,0,.1,0,0,0,0,0,0h0c-.2-.2-.3-.9-.3-.9,0-.2,0-.4,0-.6s0-.2,0-.2v-.2s0-.5,0-.5v.2c.1,0,.1-.1.1-.2,0-.4-.2-.5-.2-.8s0-.1,0-.1c-.1-.2,0-.5-.1-.8v-.2c-.1-.2,0-.4,0-.6s0,0,0-.1h0s0,0,0,0c0-.1.2-.3.3-.4v-.2h-.2c0,0,0-.2,0-.2,0,0,0,0,0-.1,0,0,0-.1,0-.2s0,0,0,0h0s-.1-.2-.1-.2h0c0-.1,0-.2,0-.3s0,0-.1,0c0,0,0,0,0,0s0,0,0,0h0s0,0,0,0c0,0,0,0,0,0,0,0,0,.1,0,.1,0,0,0,0,0,0,0,0-.1-.1-.1-.2s0,0,0-.1c0,0,0,0,.1,0,0,0,0-.1,0-.2s0-.1,0-.2h0c0-.1,0-.2,0-.2,0-.2,0-.4.2-.4s.2,0,.3,0h0c0,.1,0,0,0,0Z" fill="#fff"/>
      <path d="M156.4,9.4h0c0,0,.4,0,.4,0v-.2c.1,0,.7,0,.7,0h.7c0-.1.6.2.6.2h0c0,.3,0,.4-.2.5h-.2c0,.1,0,.3,0,.3h-.2c-.1,0-.2.1-.4.1h0s-.1,0-.1,0h0c-.4,0-.6,0-1,0h-.2c0,0-.2,0-.3,0h-.2c0,0,0,0,0,0-.1,0-.2,0-.4,0s0,0-.1,0c0,.1-.2,0-.3.2-.1,0-.2,0-.4,0s-.2,0-.3,0c0,0,0-.1-.2-.1v.2s-.2,0-.2,0c0,0,0,0,0,0l-.3.2h0c0-.1-.1,0-.1,0h-.1c0-.1-.2,0-.2,0h-.1s-.2,0-.2,0h0c0,0,0,0,0,0h-.1c0,0-.8.1-.9.1h-.2c-.1,0-.2,0-.3,0,0,0,0,0,0,0v-.2h-.2s.1-.3.1-.3h.4c0,0,0,0,0,0h0c0,0,0,0,0,0h0c0-.1,0-.1,0-.1h.3c0,0,0,0,0,0h.1c0,.1,0,0,0,0h.2c0,0,0,0,0,0h0c0-.1,0-.1.2-.1h0c0-.1,0-.3,0-.3v-.3s0,0,0,0c0,0,0-.1,0-.1h0c0,0-.1-.3-.1-.3,0,0,0-.2,0-.2v-.6c0-.2,0-.4,0-.7,0,0,0,0,.1,0,0,0,0,0,0-.1,0,0,0,0,0-.1,0,0,0,0,0-.1h0s0,0,0,0h0c0,0,0-.2,0-.2h0c0,0,0-.1,0-.1h0c0-.1,0-.2,0-.2h0c0,0,0,0,0,0,0,0,0,.1,0,.2h0c0,0,0,.1,0,.1,0,.1,0,.2,0,.4h0c0,0,0,0-.2,0h.1c0,.1-.1.2,0,.2,0,0,0,.2,0,.2,0,0,0,0-.1,0,0,0,0,0,0,.1h-.1c0,.1.1.2.1.2,0,0,0,.1,0,.2,0,0,0,0,0,.1h0q0,0,0,0c0,.1,0,.3,0,.4h0c0,0,0,0,0,0h0s0,0,0,0h0s0,0,0,0c0,0,0,0-.1,0,0,0,0,0,0,0h.1c0,0-.1.2-.2.4h0c0,0,0,.2,0,.2,0,0,0,0-.1,0,0,0,0,0,0,0,.2,0,.4,0,.5-.1h0s.1,0,.1,0c.1,0,.2,0,.3,0h.2c0,0,.3,0,.3,0,0,0,.2-.1.4-.1h.3c0,0,.3,0,.3,0h.4s.6-.2.6-.2ZM155.5,5.2l-.3.4c-.2,0-.3.4-.6.3-.3.2-.5.3-.7.3-.2-.1-.4-.2-.6-.2-.3-.3-.8-.3-.7-.7v-.2c0,0-.2-.1-.2-.1v-.2c0,0,0-.1,0-.1v-.2c.1,0,.2,0,.3-.1,0-.3.2-.3.4-.5,0,0,.2-.3.3-.2.1,0,.2,0,.3-.2h.2c0,0,.2,0,.2,0,0,0,.2,0,.3,0h.3c0,.2.2,0,.3.1.3.2.3.6.4.8,0,.3,0,.5,0,.8h0ZM154.8,4.5c-.3,0-.4-.2-.7-.2,0,0-.4.1-.4.2,0,0-.1.4-.1.5,0,0,0,.2.1.2h0c0,0,0,0,0,0,0,.2.2,0,.3.2.2.2.4,0,.6,0,.1-.3,0-.6.1-.8ZM155.9,8c0,0,0,.3-.1.4v.5s-.1.1-.1.1h0c0,.2-.2.1-.2.3-.2,0-.3-.1-.4-.2-.2,0,0-.3-.1-.4h0c0,0,0-.5,0-.5v-.4h0c0,0,0-.4,0-.4h.1c0-.2,0-.5,0-.7h0c0,0,0-.1,0-.1h0c0-.3,0-.4,0-.6.1,0,.1-.2.4-.1,0,0,0,.2,0,.2,0,0,.1.2.1.2,0,.1,0,.2-.1.3,0,0,0,.1,0,.2l-.3.3h.2c0,.2,0,.5,0,.7v.2Z" fill="#fff"/>
      <path d="M161.7,15v.2c-.1,0-.7.3-.7.3h-.3c0,0-.4-.4-.4-.4h0c0,0,0-.1,0-.1h0c0-.1,0-.2,0-.2h0c0,0,.1-.1.1-.1l.2-.3h.2c0-.1.1-.2.1-.2h0s0,0,0,0h.1s.1,0,.1,0h.2c0,0,.2.5.2.5v.4h0Z" fill="#fff"/>
    </g>
  </g>
</svg>