<?xml version="1.0" encoding="UTF-8"?>
<svg id="_레이어_2" data-name="레이어 2" xmlns="http://www.w3.org/2000/svg" viewBox="0 0 234 13.3">
  <g id="Layer_1" data-name="Layer 1">
    <g>
      <path d="M4.8,1.1h1.5v9H0V1.1h1.5v3.4h3.3V1.1ZM4.8,5.7H1.5v3.2h3.3v-3.2ZM11.8,6.4h-2.1v6.9h-1.5V0h1.5v5.1h2.1v1.3Z" fill="#fff"/>
      <path d="M20.7,6.5c-1.7.4-3.3.5-6.1.5h-1.1V.9h5.9v1.2h-4.4v3.5c2.5,0,3.9,0,5.5-.4v1.2ZM14.6,8.5h8.7v4.8h-1.5v-3.6h-7.2v-1.2ZM25.2,4.5h-1.9v3.3h-1.5V0h1.5v3.2h1.9v1.2Z" fill="#fff"/>
      <path d="M26.5,9.2c2.4,0,5.7,0,8.5-.4v1.1c-2.8.6-6,.6-8.3.6l-.2-1.2ZM34.3,4.1c0,1.9-1.5,3.2-3.6,3.2s-3.6-1.3-3.6-3.2,1.5-3.2,3.6-3.2,3.6,1.3,3.6,3.2ZM28.6,4.1c0,1.1.9,1.9,2.1,1.9s2.1-.7,2.1-1.9-.9-1.9-2.1-1.9-2.1.7-2.1,1.9ZM37.3,0v13.2h-1.5V0h1.5Z" fill="#fff"/>
      <path d="M49.2,8.7c.4,0,.8,0,1.2-.1v1.1c-2,.4-4.7.5-6.3.5l-.2-1.2h1.2V2.8h-1v-1.2h6.1v1.2h-1v5.9ZM46.5,8.8c.5,0,.9,0,1.3,0V2.8h-1.3v6ZM55.3,0v13.2h-1.4v-6.8h-1.4v6.1h-1.4V.3h1.4v4.9h1.4V0h1.4Z" fill="#fff"/>
      <path d="M69.5,10.3v1.2h-12v-1.2h12ZM68.1,7.5h-9.2V1.2h9.1v1.2h-7.6v3.8h7.7v1.2Z" fill="#fff"/>
      <path d="M82.9,6.1v1.1h-12v-1.1h12ZM73.9,12h8v1h-9.5v-3h7.6v-.9h-7.6v-1h9.1v3h-7.6v1ZM79.9,1.4h-7.5V.3h9v2.9h-7.5v.9h7.7v1.1h-9.2v-3h7.4v-.9Z" fill="#fff"/>
      <path d="M96.3,2.7h-7.8v-1.2h3.1V0h1.5v1.5h3.1v1.2ZM92.4,8.3c-1.9,0-3.2-1-3.2-2.5s1.3-2.5,3.2-2.5,3.2,1,3.2,2.5-1.3,2.5-3.2,2.5ZM92,11.8h7.4v1.2h-8.9v-3.8h1.5v2.6ZM92.4,7.2c1.1,0,1.8-.5,1.8-1.3s-.7-1.3-1.8-1.3-1.8.5-1.8,1.3.7,1.3,1.8,1.3ZM100.7,4.2v1.2h-1.9v4.4h-1.5V0h1.5v4.2h1.9Z" fill="#fff"/>
      <path d="M112.8,7.6h-6.1V.9h1.5v2.2h3.1V.9h1.5v2.8h2.8V0h1.5v9.8h-1.5v-4.9h-2.8v2.8ZM111.3,4.3h-3.1v2.2h3.1v-2.2ZM117.4,11.8v1.2h-8.9v-4.1h1.5v2.9h7.4Z" fill="#fff"/>
      <path d="M126.2,7.4h-6.2V1.1h6.2v6.2ZM124.7,2.4h-3.2v3.8h3.2v-3.8ZM123,11.8h7.4v1.2h-8.9v-4.2h1.5v3ZM131.8,3.9v1.2h-1.9v4.5h-1.5V0h1.5v3.9h1.9Z" fill="#fff"/>
      <path d="M144.1,6.4c-1.5-.5-2.5-1.4-3.1-2.7-.6,1.4-1.7,2.5-3.3,3l-.7-1.2c2.1-.7,3.2-2.3,3.2-4.2V.5h1.5v.9c0,1.7,1.1,3.2,3.1,3.8l-.8,1.2ZM140.4,11.9h7.5v1.2h-8.9v-3.5h7v-1.1h-7v-1.2h8.5v3.4h-7v1.2ZM149.3,2.8v1.2h-1.9v2.9h-1.5V0h1.5v2.7h1.9Z" fill="#fff"/>
      <path d="M158.6,7.5c-1-.5-1.6-1.4-1.9-2.4-.3,1-.8,1.9-1.8,2.5-.9-.6-1.5-1.5-1.8-2.5-.4,1-1,1.9-1.9,2.4l-.8-1.1c1.5-.8,2-2.5,2-3.8v-.4h-1.6V1h3.8v1.2h-.8v.4c0,1,.2,2.4,1.1,3.3.8-1,1-2.3,1-3.3v-.4h-.8V1h3.7v1.2h-1.5v.4c0,1.4.5,3,2,3.8l-.8,1.1ZM152.2,8.5h9v4.7h-1.5v-3.5h-7.5v-1.2ZM162.7,4.6h-1.5v3.4h-1.5V0h1.5v3.3h1.5v1.2Z" fill="#fff"/>
      <path d="M174.8,6.4h-6.2V.6h1.5v1.7h3.2V.6h1.5v5.8ZM170.7,11.9c1.2,0,2,0,3-.2v1.1c-1.1.2-2,.2-3.7.2h-.7v-3.3h2.7v-1h-2.7v-1.1h4.2v3.2h-2.7v1.1ZM173.4,3.5h-3.2v1.7h3.2v-1.7ZM177.1,7.5h1.3s0,5.5,0,5.5h-4.3v-5.6h1.4v1.6h1.6v-1.6ZM177.1,10.2h-1.6v1.7h1.6v-1.7ZM180.3,3.9h-1.9v2.9h-1.5V0h1.5v2.7h1.9v1.2Z" fill="#fff"/>
      <path d="M188.5,5.6c0,2.9-1.4,4.7-3.4,4.7s-3.4-1.8-3.4-4.7,1.4-4.7,3.4-4.7,3.4,1.8,3.4,4.7ZM187.1,5.6c0-2.1-.8-3.3-1.9-3.3s-1.9,1.2-1.9,3.3.8,3.3,1.9,3.3,1.9-1.2,1.9-3.3ZM193.9,6.4h-2.1v6.8h-1.5V0h1.5v5.2h2.1v1.2Z" fill="#fff"/>
      <path d="M207,8.7h-5.3v4.6h-1.5v-4.6h-5.2v-1.2h12v1.2ZM195.7,5.3c2.5-.3,4.4-1.8,4.5-3.3h-4V.8h9.7v1.2h-4c0,1.5,1.9,3,4.5,3.3l-.5,1.2c-2.2-.3-4-1.4-4.8-2.9-.8,1.5-2.6,2.5-4.8,2.9l-.5-1.2Z" fill="#fff"/>
      <path d="M212.6,3.5c0,2.1.8,4.4,2.6,5.5l-.8,1.2c-1.2-.7-2-2-2.4-3.5-.5,1.6-1.3,3-2.6,3.8l-.9-1.1c1.9-1.1,2.8-3.5,2.8-5.7V1.2h1.5v2.3ZM215.7.3h1.4v12.3h-1.4v-6.7h-1.9v-1.2h1.9V.3ZM219.8,0v13.2h-1.4V0h1.4Z" fill="#fff"/>
      <path d="M234,10.4v1.2h-12v-1.2h2.8v-3.4c-1.1-.6-1.7-1.5-1.7-2.7,0-2.1,2-3.5,4.9-3.5s4.9,1.3,4.9,3.5-.6,2.1-1.7,2.7v3.4h2.8ZM224.6,4.2c0,1.4,1.4,2.3,3.4,2.3s3.4-.9,3.4-2.3-1.4-2.3-3.4-2.3-3.4.9-3.4,2.3ZM226.3,10.4h3.3v-2.9c-.5.1-1.1.2-1.7.2s-1.2,0-1.7-.2v2.9Z" fill="#fff"/>
    </g>
  </g>
</svg>