<?xml version="1.0" encoding="UTF-8"?>
<svg id="_레이어_2" data-name="레이어 2" xmlns="http://www.w3.org/2000/svg" viewBox="0 0 173.9 85.4">
  <g id="Layer_1" data-name="Layer 1">
    <path d="M3.2,40.9c.9-.4.9-.4.6-1.3.3-.2.6-.4,1.1-.7-.5,0-.8-.1-1.1-.2,0,0,0-.2,0-.2,0-.2.2-.4.3-.6.1-.4.5-.6.8-.4.5.4.7-.7,1.1-.1.6-.2.5-.7.5-1.1.4-.2.8-.3,1.3-.5,0-1.4,1-2.2,1.4-3.4,0-.2.4-.3.7-.4.3,0,.5-.1.8-.2v-1c.5-.2.9-.8,1.7-.8.4,0,.5-.4.8-.5.6-.4.9-1.2,1.8-1,.2,0,.5-.2.7-.4.3-.4.6-.7,1.1-.7.1,0,.3-.2.3-.3,0-.5.4-.6.8-.7.4-.2,1-.2,1.1-.9,0-.2.5-.2.7,0,0,0-.2.1-.2.2,0,0,0,.2,0,.3,0,0,.2,0,.2,0,0,0,0-.2,0-.3,0,0,0-.2-.1-.3.3,0,.6,0,1,0,0-.2,0-.4-.1-.5q1-.4,1.7-1.3c.4,0,.9,0,1.4,0,.2,0,.4,0,.6-.2.2-.1.3-.4.5-.4.5-.2,1.1-.3,1.7-.5.1.3.3.5.5.9.2-.3.4-.7.6-.8.3-.1.7,0,1-.1.4-.1.6-.6,1-.6,1.1-.1,2.1-.5,3.1-.9.1,0,.3,0,.5,0,.8,0,1.7.2,2.5.3.2,0,.4,0,.5,0,1.3-.8,2.5-.2,3.6.4.3.2.7.4,1,.6.4.2.8.5.9,1,.2,1,1,1.4,1.6,2.1.4.5,1.2.7.9,1.6,0,0,.2.3.3.3.6.4.5.8.1,1.3.6,1.1,1.2,2.1,2.2,2.9.5.3.7,1,.9,1.6.6,1.3,1.5,2.2,2.8,2.7.1,0,.2,0,.3,0,2.6,1.5,2.5,1.4,4.5.6.1,0,.3.2.4.3.1.1.2.3.3.4,1,.1,2.2-.1,2.9,1.1.2-.1.4-.2.6-.3.6-.4.9-.5,1.4,0,.8.7,1.6,1.3,2.6,1.6.3,1.3.9,2.3,2.4,2.1.1.2.3.3.3.4.4,1.1.8,2,2,2.6.7.3,1,1.4,1.8,1.8.2.1.3.4.5.4.9,0,1.3.8,1.9,1.2.6.4.3.8.4,1.2.3,0,.6.1.9.3.5.3,1-.5,1.4,0,.3.4.8.3,1.3.4,1,.2,1,.2,2.2-.6.2-.4-.3-.6-.5-.8-.4-.5-1-.9-1.1-1.5-.2-.7-.7-.9-1.1-1.4-.1-.2-.4-.4-.7-.4-.6,0-.7-.5-1-.8-.4-.4.2-.7,0-1.1-.6-.6-1.2-1.3-1.9-2-.4.3-.9.6-1.3.9-.6-.1-.9-.3-1.2-.8-.5-1.1-1-2.1-.9-3.4,0-.6-.1-1.2-.6-1.5-.7-.6-.5-1.4-.5-2.2,0-.9.2-1.9.3-2.8.1-.8,0-1.5-.5-2.1.6-.7,1.3-1.2,1.1-2.2,0,0,0-.3,0-.3.9-.6.2-1.1,0-1.6.5-.7,1-1.4,1.5-2.2.2-.2.4-.4.6-.5,1-.5,1.9-.9,3.1-.7.4-1.2,2-1,2.4-2.2,1.2,0,2.2.6,3.2,1.2.5-.1,1-.3,1.6-.5.3.2.6.3.8.6.6.7,1.3.8,2.1.8.2,0,.5,0,.6-.2.3-.2.5-.5.9-.4.5.2,1-.2,1.6.1.7.4,1.4.6,2.1,1.2.7.6,1,.5,2-.2.6.2,1.2.5,1.8.7.3.1.4.2.5.6.2.6.6.9,1.2,1,.4,0,.8.2,1.1.2.8-.6.6-1.5,1-2.2.8-.2,1.5-.5,2.4-.5.9,0,1.7-.7,2.4-1.2.5-.4.8-.9,1.3-1.3.5-.4,1.1-.9,1.8-.4.2.1.5.1.6,0,1.5-.9,2.8-.2,4.1.6,0,0,.2,0,.3.1.3-.3.4-.6.3-1.1-.1-.3-.2-.6,0-.9,0,0,.1-.4,0-.4-.7-.7-.3-1.8-.7-2.6.2-.6,0-1.1-.5-1.5-.1-.1-.2-.3-.3-.5.4-.8.9-1.5,1.3-2.3.5-.9,1.1-1.8,1.8-2.6.4-.4.4-1.1.7-1.8.4,0,.8,0,1.3-.1.4,0,.9-.2,1.4-.3.1-.4.3-.9.5-1.6,1.2,0,2.1-.7,3.2-1.1,0,0,.3,0,.3-.1.3-1,1.1-1,1.9-1,.5,0,.8-.2,1.2-.6.6-.6,1.2-.8,2-.3.3.2.6.2.9,0,.5-.2,1-.2,1.5-.2.5,0,.8-.4,1.2-.7,1.3.5,2.6,1,4.1.2.2.3.5.6.7.9.4-.2.7-.3,1-.4.1,0,.2,0,.3.1.4.3.8.6,1.2.9.2.2.5.3.7.3.5,0,1,0,1.5.4.5.3,1.1.3,1.6.6.4.2,1,.3,1.5.4.6.2,1.3,0,1.7.6.1.2.5.1.8.2.2,0,.5,0,.6.2.6.7,1.3.6,2,.3.1.4.2.7.3,1,.4,1,.8,1.3,2,1.8.6.2,1.2.4,1.4,1.3,0,.3.3.7.6,1,.8.6,1.3,1.5,2,2.3.6.7,1,1.5,1.1,2.4.1.8.4,1.5.6,2.3,0,.3.2.7.1,1-.4.8,0,1.2.7,1.5,0,0,0,0,.1.2,0,.9-.1,2,.5,2.9.3.5.2,1-.2,1.4-.2.3-.4.7-.6,1.1.1.2.2.4.3.5.4.4.4.8.1,1.3-.5.8-.9,1.7-.8,2.7,0,.4-.2.9-.3,1.3,0,.2-.1.5,0,.6.3.5.1.9,0,1.3-.2.4-.7.8-.5,1.4,0,0-.2.3-.3.4-.8.3-1.1,1.1-1.3,1.9-.2,1.3-1.1,2.1-1.8,3-.4.5-.7.9-.9,1.6,0,.5-.6.9-.8,1.4-.2.5-.5.8-.9,1.2-.4.3-.6.8-.8,1.3-.3.6-.6,1.2-1.3,1.5-.9.5-1.3,1.3-1.7,2.2-.2.4-.5.9-.9,1.2-.4.3-.5.5-.6.9-.2.6-.6,1.2-1.4,1.4-.6.1-1,.5-1.3,1,.3.4.5.9,1.2.9.5,0,.8.6,1.4.5.4,0,.9.1,1.3.1.5,0,1-.2,1.5-.3.2-.4.3-.9.5-1.4.4,0,.8,0,1.1,0,.8.4,1.5.4,2.1-.3.6,0,1.1.7,1.7,0,.3-.3.8-.3,1.3-.5.4.3.8.6,1.3,1,.1-.8.5-1.2,1.3-1.4.2.2.3.5.5.5.2,0,.5-.1.9-.2.6.6,1.8.6,1.9,1.7,2,.6,4,1,5.9,1.6.8.2,1.6.6,1.9,1.6,0,.3.5.5.7.7.3.3.7.4.7.9,0,.3.2.3.5.3.2,0,.3,0,.5.1.4.3.8.4,1.2.5.4.1.6.6.9.9.8.5,1.6.9,2.3,1.4.5.3,1,.6,1.4.9,0,.6,0,1.1,0,1.5,0,.9-.8,1.7-1.7,1.8-.2,0-.3,0-.5,0-.1,0-.2,0-.3,0,0,0-.2.1-.3.2v1.5c-.5.7-1.2.8-2,.4-.4-.2-.7-.5-1.1-.6-.4-.1-.8,0-1.2,0,0-.3-.2-.6-.2-.9,0-.6-.5-1-1-1.3-.4-.2-.7-.4-1.1-.5-.1,0-.3-.1-.5,0q-1.5,0-2.7-.7s0,0-.1,0c-1.3,0-2.4-1-3.8-.6-.3,0-.7.1-1,0-.9-.4-1.6,0-2.4.3.4.5.8,1,1.1,1.5.1.2.2.5.2.6-.3.7,0,1.3.2,2,.3.7.4,1.4.6,2.1,0,.2,0,.4,0,.5-.4.7-.1,1.4,0,2.2,0,.6-.1,1.2-.2,1.8,0,.6-.5,1.2,0,1.8,0,.1,0,.5-.1.6-.6.8-.6,1.8-1.3,2.5-.2.2-.3.6-.4.9-.2.5-.4,1.1-1.1,1.2-.5.1-.5.7-.8,1.1-.2.3-.5.6-.8.5-.9-.2-1.4.2-1.8.8-.3-.1-.5-.2-.8-.4-1.2-.7-2.4-.4-3.5.3-.7.4-1.3.6-2.1.3-.6-.2-1.2-.3-1.9-.1-.6.2-1.4,0-2-.6-.6-.6-1.5-.7-2-1.6,0,0,0-.1-.1-.1-1.1,0-1.8-.9-2.8-1.1-.3,0-.7,0-1,0-.5-.4-.5-1.2-1.2-1.4-.5-.1-1.1-.2-1.6-.4-.4-.8-.8-1.6-1.1-2.3-.2-.6-.9-.6-1.2-1.1-.2-.3-.5-.4-.4-.8,0-.1,0-.4,0-.5-.7-.6-.5-1.2,0-1.8-.2-.3-.4-.5-.4-.8-.1-.6-.4-1-.9-1.3-.4-.2-.5-.7-.4-1.1.5-1.3.8-2.7,1-4.1.1-.8.6-1,1.3-1,0-.6,0-1.1,0-1.8.5-.3,1.1-.7,1.7-1-.2-.2-.4-.3-.7-.5-.4,0-.9.3-1.1.1-.7-.5-1.5-.4-2.4-.5-.3.7-1.2.9-1.6,1.6-.3.7-.6,1.3-.9,2.1-.3.1-.6.2-.8.3-.5,1.2.2,2.4,0,3.6-.4.2-.8.4-1.1.6-.4.8-.8,1.6-1.3,2.5-1.1,0-1.9.7-2.6,1.7-.6.8-1.5,1.5-2.6,1.5-1.2,0-1.8.5-1.9,1.8-.8.2-1.6.4-2.4.6-1.3.3-2.6.8-3.7,1.7-.5.4-1.3.2-1.4.9q-1.6-.9-3.6-.7c-.4,0-.8,0-1.1.2-.4.1-.7.3-1.2.5-.9-.7-1.9-.9-3.1-.4-1,.4-2.1.2-3-.5-.5-.4-1.2-.7-1.8-1-.3-.1-.7-.1-1-.1-.3,0-.7,0-1,0-.2-.4-.3-.7-.4-1,0-.2-.1-.4-.3-.4-.9-.2-1.2-1.1-1.9-1.5-.5-.3-.9-.6-1.4-.9-.4.5.2.9.2,1.5-.2.3-.5.6-.8.9,0,.2.2.5.3.7-.6.3-1.2.5-1.8.8-.2.7-.4,1.3-.6,2h-1.1c-.2.9-1.1,1.3-1.7,1.8-.9.7-1.9,1.3-2.4,2.3,0,.1-.2.3-.4.4-.9.4-1.8.9-2.7,1.3-.3.2-.7.4-1.1.6-.3-.2-.8-.4-1.4-.7,0-.5,0-.9,0-1.4-.1,0-.2-.2-.3-.2-.7-.3-1.4-.4-2.1-.1-.8.3-1.5-.3-2.4-.4-.2.1-.6.2-.9.4-.4.2-.7.2-1.1,0-.2,0-.5-.1-.8,0-.3,0-.6,0-.8-.2-.6-.8-1.4-.9-2.3-.7-.7.2-.8,0-1.1-.6-.1-.3-.3-.6-.6-.8-.5-.2-.9-.5-1.3-.7-.6-.3-1.3-.6-1-1.5-.5-1-.6-2.2-1.6-3,0-.3.2-.6.2-.8,0-.3,0-.7-.2-.9-.5-.6-.6-1.2-.2-1.8.3-.5.4-.9,0-1.5-.4.2-.7.6-1.1.6-.3,0-.7-.2-1.2-.3,0,.3-.2.6-.3,1-1,0-2.1.2-3,.7,0,0-.1,0-.1,0-1-.1-2,0-2.8.7-.2.2-.8,0-1.2.1-.6,0-1.2,0-1.9,0-.3,0-.7,0-.8.4,0,0,0,.1,0,.1-.1,0-.3.2-.5.2-.8-.3-1.4.7-2.3.3-1.4-.6-2.8-.3-4.1.2-.9.3-1.7.1-2.5-.4-.5-.3-.9-.6-1.4-.9-.5-.3-1-.4-1.6,0-.7.4-1.4.2-2.1-.2-.7-.4-1.4-.6-2.2-.9-.5-.2-1.1-.3-1.4-.8-.6,0-.8-.5-1.1-.9,0,0-.1-.3-.2-.3-1.2-.2-1.8-1.5-2.9-2-.5-.2-1-.4-1.2-1,.1-.3.2-.7.4-1-.4-.9-.8-1.8-1.6-2.5-1.3-1.4-1.3-1.5-1.2-3.7,0,0,0-.1,0-.2-.2-.2-.5-.3-.7-.5,0-1.6-.1-3.2-.2-4.8.7-1.2,0-2.4,0-3.7,0-.2-.3-.5-.4-.7.2-.2.3-.5.4-.7,0-.6-.8-.8-.8-1.5,0-.7.7-1,.8-1.7.9-.3,1-1.2,1.2-1.8.4-.5,1,0,1.3-.6.2-.4.7-.7,1-1.1.2-.4.3-.9.4-1.3.6-.3,1.3-.7,2-1,.1-.5.3-1,.4-1.6h1.6c.4-.6.9-1.2,1.7-.9.4-.3.9-.6,1.4-1,.5,0,1.1,0,1.8.1.2-.4.3-.7.4-1,.4-.7.7-.9,1.5-.8.2,0,.4,0,.6.2.9.4,1.7.7,2.5,0,.5,0,1.1,0,1.6,0,1.4-.1,1.8-.3,3.1-1.5-1.8.2-3.4-.5-5.1-.2-.2,0-.5,0-.8-.2-.3-.2-.5-.4-.8-.6-.7,0-1.2.4-1.9.2-.3,0-.7,0-.9.2-.8.6-1.7.4-2.4.1-.7-.3-1.3-.4-2-.3-.3,0-.7,0-1-.1-.4,1-1.1,1.5-2.1,1.6-.4,0-.7.2-1,.6-.4.6-1.1.8-1.7,1-1.9.5-1.9.5-3.4,1.9-.3.3-.3.3-1.5.5-.1.2-.3.4-.4.7-.3.5-.6.8-1.2.8-.6,0-1.1.3-1.4.8-.1.2-.4.4-.6.6-.5.3-.8.8-1,1.3-.1.4-.2.7-.7.9-.5.3-.9.8-.7,1.4.2,1.1-.4,1.7-1.2,2.3-.2.1-.4.3-.6.4,0,.7-.2,1.4-.3,2.2-.3.2-.7.3-1.1.5,0,.5-.2,1.2-.2,1.8,0,.2.3.4.6.7,0,.2-.1.5-.3.7-.4.6-.3,1.2.1,1.7.2.2.3.5.4.7,0,.6,0,1.1.1,1.7.6.3.5.9.6,1.5,0,.6.3,1.3.7,1.7.6.6.7,1.2.8,2-.2.2-.5.5-.8.7-.3.2-.7.3-1,.3-.8-.2-1.7-.4-2.4-.7-.3-.1-.7-.6-.7-.9,0-.6-.3-.8-.8-1-.4-.2-.6-.6-.8-1-.2-.6-.6-1.1-.8-1.6-.2-.6-.4-1.2-1-1.5.1-.4.2-.7.4-1,0-.2.3-.5.2-.6-.4-1.5.6-3,0-4.5-.1-.4,0-.9,0-1.3,0-.4.3-.9.9-.9.5,0,.7-.3.8-.8-.2-.2-.3-.5-.5-.8,0-.6.7-1.2.2-1.9-.1-.1,0-.6.2-.8.6-.8.8-1.6.8-2.5,0-.4.2-.8.2-1.2,0,0,0,0,0,0ZM120.6,29.7c0-.5,0-.7-.6-.9-.2.3-.1.5.1.7.1,0,.3.1.4.2,0,.3,0,.6,0,.8.1.6.5.7,1.3.6-.4-.5-.8-1-1.2-1.4,0,0-.1,0-.2,0ZM112.9,34.1c0-.1,0-.3,0-.3-.6-.6-1.1-1.3-1.4-2.2-.2-.6-.6-1.1-1.1-1.5-.3-.3-.8-.3-1.2-.4-.2,0-.4.3-.6.4.2.4.5.7.6,1.1.2.8.7,1.3,1.5,1.4.5,0,.6.3.6.8,0,.7,0,.7.7.6.3,0,.6,0,.8.1,0,.1.1.3.2.4.1,0,.3,0,.4,0,0,0,0-.2,0-.3-.1,0-.3-.1-.4-.2ZM137.7,46.2c.7,0,1.3,0,1.8-.5.8-.7,1.4-1.5,1.8-2.4.4-.9.8-1.8,1.4-2.6.3-.4.5-.8.9-1,.5-.4.1-1,.4-1.4,0,0,0-.1.1-.1.6,0,.5-.5.6-.8,0-.2.2-.5.3-.6.7-.5,1-1.2.9-2,.4-.2.8-.3,1.2-.5,0-.4,0-.8,0-1.2,0-.6,0-1.3.3-1.8.4-.7-.2-1.3,0-1.9.1-.4,0-.8,0-1.1-.2-.4-.2-.8-.1-1.3.2-1.3.4-2.5-.1-3.8-.2-.5-.3-1-.5-1.5-.4-.7-.6-1.5-.5-2.3,0-.3,0-.5,0-.8-.8-.1-1.5-.2-2.3-.3,0-.5-.2-.9-.3-1.4-.4,0-.6-.1-.8-.1-.3-.4,0-.7-.4-1-.9-.9-2-1.7-2.7-2.8-.1-.2-.4-.2-.6-.3-.5-.2-.9-.3-1.4-.5-.1.1-.2.3-.4.5-.2-.3-.3-.6-.5-.9-1,.2-1.9-.5-3-.5-.4-.7-1-.6-1.6-.4-.3,0-.5.2-.8,0-.4-.4-1.1-.7-1.5-.5-.7.3-1.5-.2-2,.5-.1.1-.5.2-.6,0-.2-.1-.4-.4-.6-.6-.9.6-1.5.8-2.6.7,0,0-1.6.3-1.6.4-.3.4-.8.3-1.2.5,0,0-.2.1-.3.2,0,.3,0,.6-.1,1-1,.1-1,1.1-1.3,1.6-.5.2-.9,0-1.2.6.1,1-.1,2.1.6,3,.6.7.7,1.5.7,2.3.2.2.3.3.5.4.5.2,1,.4,1.5.6q.3,1.6,1.1,2.3c0,.4,0,.8,0,1.2.8.5,1.6,1.1,2.5,1.5.9.5,1.5,1.1,1.7,2.1.1.7.4,1.4,1,1.9.2.2.2.5.4.7.1.2.3.4.4.5.5.1.7.5.9.9.1.2.3.5.6.6,1,.6,1,.6,1.1,1.3,0,.2,0,.5.2.6.5.2.7.6.6,1.1,0,.3.2.4.4.5.3.1.5.3.5.7.1.7.6,1.1,1.4,1.3.5,1.3.7,2.6,1.9,3.4.1.5.1,1.1.4,1.5.6.8.8,1.7,1.1,2.6ZM47.1,51.8c0-.2-.2-.4-.3-.6-.4-.6-.5-1.1,0-1.8.6-1,.2-2.1-.7-3-.5-.5-.9-1.1-.6-1.8.3-.6,0-1.1-.2-1.6-.2-.4-.4-.7-.5-1-.4-1.3-1.4-1.7-2.6-2-1-.3-1.6.2-2.3.7-.4-.6-.9-.7-1.5-.5-.6.2-1.2.5-1.8.5-1.5.1-2.5.9-3,2.3-.2.6-.5,1-1.3,1-.4,0-.8.4-1.1.7-.3.2-.4.6-.7.7-.6.3-1.1.6-.7,1.4,0,0-.1.3-.2.5-.4.6-.5,1.3-1.1,1.9-.2.2-.1.7-.3.9-.2.3-.4.6-.7.7-.5.2,0,.6-.3.8-.6.3-.8.9-1,1.5-.3.6-.6,1-.2,1.7,0,.2,0,.6-.2.8-.2.3-.5.6-.8.9,0,0,0,.2,0,.3.2.2.5.5.7.7-.2.7-.5,1.3-.7,2,.8.6,1.3,1.3,1.6,2.2.3.9.9,1.5,1.6,2.1.3.2.5.6,1,.4,1,.4,2.1.7,2.8,1.6.3.4.7.6,1.3.7,1.2.2,2.5.4,3.6.8,1.3.5,2.6.2,3.9.2.2,0,.4,0,.5-.2.5-.6,1.1-.4,1.7-.3.4.8.6.9,1,.4.2-.2.4-.5.6-.7.4,0,.7.1.9.2.7-.5,1.2-1,1.9-1.6-.2-.6.1-1,.6-1.4-.8-1.2-1.1-2.2-.2-3.3.1-.1.1-.4.1-.6,0-.7-.2-1.4-.2-2-.4-.3-.8-.6-1.1-.8.2-.8.5-1.6.7-2.4-.7-1-.4-1.8.2-2.7ZM115,51.3c.1-1.1,0-2.1.4-3,.3-.7.3-1.4.5-2.1.5-.3,1-.7,1.2-1.4-.6-.3-.9-.8-.8-1.5,0-.6-.2-1.3,0-1.9.1-.3-.1-.9-.3-1.3-.1-.3-.5-.4-.9-.4-.7,0-.8-.7-1.1-1-.5,0-.8,0-1.2,0-1-1.2-2.3-2-3.7-2.6-1.4-.5-1.9-.8-2.5-1.9-.3-.5-.6-.8-1.1-.9-.6-.2-1-.5-1.3-1.2-.4-.7-1.1-1.3-1.7-1.9-.5-.5-1-.8-1.8-1-.1.6-.4,1.1-.3,1.5,0,.6-.8.9-.6,1.5.3.7-.6.8-.6,1.3.2.3.4.6.4.9.3.9.5,1.8-.6,2.5-.1,0-.2.3-.2.4,0,.5-.1,1,0,1.5.1.4,0,.7-.1,1.1-.4,1-1.2,1.8-2,2.4-.5.4-.5,1-1,1.3-.2.1-.2.6-.2.9,0,.4-.2.9-.3,1.3.3.5.7.9,1,1.3,0,0,.1.2.2.3.3.1.7.2.9.4.3.2,0,.7.5,1,.4.2.8.6,1.1.9,1-.4,1.1-.4,2-.1.4.1.8.3,1.1,0,.6-.4,1.1,0,1.5.3.4.4.9.9,1.3,1.3.8,0,1.5-.2,2.1.6.2.2.6.2,1,.3.4,0,1,0,1.3.2.7.6,1.7.2,2.4.6.2,0,.5,0,.7,0,.6-.5,1.2-.2,1.6,0,.5-.7.9-1.2,1.2-1.6ZM93.3,56.3c-.2-.8-.5-1.6-1.6-1.6-.6,0-.8-.6-1.3-.7,0-.8-.5-1.1-1.2-1,0,0-.1-.2-.2-.3-.3-.3-.6-.6-.9-1-.5.3-.5.9-.8,1.3-.3.4-.8.7-1.2,1.1.4.6.7,1,1.1,1.6-.5,1.5,0,2.8,1.3,3.8-.6,1.1-.5,2,.1,2.9.2.3.4.7.6,1.1.5-.5,1.1-.5,1.6-.1.5.4.9.8.8,1.5,0,.3,0,.5.2.8.4.6,1,.8,1.7,1,.3,1.4.3,1.5,1.6,1.8.5.1.9.4,1.3.7.8.5,1.5,1.2,2.5,1.3,1.2.2,2.1.8,2.8,1.7.1-.1.3-.2.4-.3,1.4-.7,2.7-1.4,4.1-1.9.2,0,.5-.1.6-.3.5-.8,1.4-1.3,1.8-2.2.2-.4.4-.5.8-.8.6-.3,1.1-.9,1.4-1.4.7-1.1,1.2-2.2,1.8-3.4.2-.3.4-.3.7-.5.1,0,.2-.2.3-.4-1.2-.7-2,.3-3,.6-.3,0-.5-.1-.8-.2-.7-.2-1.5-.3-2.1-.6-.8-.5-1.6.5-2.3-.2-1.4.4-2.5-.4-3.6-.9-.6-.3-1.3-.6-1.8-1.1-.7-.6-1.4-.4-2.1-.5-.2,0-.3-.1-.5-.2-.7-.3-1.3-.9-2.2-.7-.1,0-.3-.2-.4-.2-.4-.2-.9-.4-1.4-.7ZM87.9,30.9c-.5-1.7-.8-3.7-3.2-3.9-.4.1-.8.3-1.3.5-.1-.4-.3-.8-.8-.6-.4.1-.6,0-.9-.2-.6-.5-1.2-.4-1.8,0-.4.3-.7.6-1.1.8-.9.4-1.9.8-2.3,1.8-.8.3-.5.9-.4,1.4-.3.2-.7.4-1,.6,0,.7,0,1.4-.5,2-.4.5-.3.8.4,1.3.3.2.4.4.4.7,0,.3.1.5.2.8.5.2.9.4,1.3.6,0,0,.1.2.2.3,0,.3,0,.6-.2,1,1,.5,1.7,1.2,1.2,2.4,1,.6,1.3.9,1.3,1.8,0,.3,0,.5.2.7.3.3.6.7.9,1,.4.4.6.9.5,1.4.8.9,1.6,1.7,2.4,2.6.5-.4,1-.8,1.4-1.1q0-1.4,1.3-2.5c-.1-.7-.2-1.5-.4-2.3.3-.2.5-.3.7-.4.7-.3,1.1-.7,1-1.6,0-.4,0-.6.4-.9.2-.1.4-.3.4-.5.2-1.2.9-2.2,1.7-3-.2-.7-.5-1.3-.6-1.9-.1-.7-.6-1.1-.9-1.6.1-.3.2-.6.3-.8-.3,0-.6-.2-.9-.2ZM78.3,67.3c.2-.5.7-1.1.7-1.7,0-.6-.3-1.3-.5-1.8-1.8-.3-3.3-1-5.1-.7-.9-1.9-2.6-1.3-4.2-1-1-1.3-2.5-.5-3.7-.6-1,.9-1.8,1.8-2.2,3,.9.3.8,1.1,1.2,1.7-.7.5-.6,1.3-.8,1.9.5.6,1,1.1,1.3,1.5-.1,1.2-.3,2.2.3,3.2q1.3.6,2.3,2c.2-.2.4-.3.6-.5,1.2.3,1.6,1.4,2.1,2.3.4-.4,1.2-.2,1.4-.8.3-.9,1-1.5,1.6-2.1,0-.6,0-1.1,0-1.6.9-.9,1.8-1.4,3.1-1.5v-1.6c.5-.3,1.2-.5,1.3-1.3,0-.1.5-.2.7-.2ZM51.6,47c.8.2,1.1.5,1.5,1,.9,1.4,1.7,2.9,3.3,3.8,0,.6-.1,1.1,0,1.6.2.4.7.8,1,1.1.1.2.3.4.3.6.1.7.3,1.4.3,2.2,0,.9-.1,1.8.8,2.5.5-.4.9-.9,1.5-1.4.8.6,1.5.2,2.2,0,.3,0,.5-.2.8-.3.9-.3,1.8-.6,2.7-1,.6-.3,1.5-.6,2.1-.7.2,0,.4,0,.7,0-.4-.8-.8-1.5-1.2-2.1-.7-.3-1.3-.5-1.8-1.2.3-.6.8-1.2.2-2-.5-.1-1.1.2-1.4-.4-.2-.5-.7-.6-1.1-.8-1-.5-1.9-1.1-3.1-1.3-.3,0-.5-.2-.8-.4-.2,0-.4-.3-.6-.3-1.3,0-2.2-.8-3.1-1.5-.6.2-1.1.5-1.7-.1-.4-.4-1.1-.7-1.8-.5-.2.3-.5.6-.9,1.2ZM141.4,73.6c.9-.4,1.4-1,1.5-1.9,0-.8,0-1.6,1-2,.1,0,.1-.3.2-.5.3-.7.6-1.4,1-2.3,0-.5,0-1.1-.7-1.6-.3,0-.7,0-.9.3-.8,1.1-2,1.6-3,2.4,0,0,0,0-.1.1-.4.4-.8.7-1.3,1.2.2,1.2.2,2.5-.6,3.6.3.3.6.5.7.7.1.3,0,.8,0,1.2.5.3,1,.6,1.4.8,1.3-.6,1.3-.7.8-2.2ZM127.1,38.6c0-.3,0-.6,0-.8-.5-.6-.6-1.3-.8-2,0-.4-.4-.9-.8-1.1-.8-.5-1.4-1.3-1.8-2.1-.8.3-.9.5-.6.9.2.3.6.6.5.8-.2,1,.4,1.7.8,2.4.5.9,1.2,1.7.8,2.8.6.5,1,.9,1.1,1.7,0,.4.3.9.5,1.2.6.7.2,1.6.6,2.4-.4,1.1.1,2.1-.2,3.3,1-.5,1.2-1.2.9-2.1,0-.1,0-.2-.1-.3-.3-.7-.3-1.3.3-1.8.4-.4.4-.8.1-1.4-.3-.6-.4-1.4-.5-2.1,0-.1,0-.3.2-.4.2-.2.4-.4.2-.8-.4-.2-.9-.4-1.5-.6ZM149.7,76.3c-.1-.5-.1-.9-.3-1.2-.3-.7-.3-1.4-.2-2.2,0-.6.4-1.1.4-1.6,0-.6-.2-1.2-.3-1.9q-1.1-1.1-1.7-.9c.2.6.4,1.2.6,1.7-.3.8-.6,1.4-1,2.1-.1.2-.4.4-.6.6-.8.5-.8.5-.6,1.3.2,1.1.2,2.1-.9,2.8-.4.2-.5.7-.2,1.3.9-.2,1.7-.3,2.6-.5.2,0,.4-.2.5-.4.6-.7.6-.7,1.7-.9ZM64.2,79.6c.5-.5.6-1,.2-1.3-1.1-1.2-1.9-2.7-3.4-3.5-.2-.5-.3-1-.5-1.4-.3-.5-.5-.6-1.5-.4.7.2.9.6.9,1.2,0,.7.2,1.4.1,2,0,.8.6,1.1.9,1.7.2.4.7.5,1.2.4,0,0,.3,0,.3,0,.3.8,1.2.8,1.8,1.2ZM54.8,60.8v-2.7c-.5-.2-.9-.4-1.6-.7.2.6.4.9.5,1.3,0,.4,0,.8,0,1.2,0,.6.4.9,1.1,1ZM40,24.8c-.7-.8-1.5-1.3-2.3-1.7-.2,0-.4,0-.7,0-.1,0-.4.2-.4.3,0,.2,0,.5.2.6.5.2,1,.5,1.6.5.4,0,.7.2,1.1.4,0,0,.3,0,.6,0ZM23.6,48.7c-.3.3-.7.5-.9.8-.2.3-.2.8-.2,1.1,0,0,.2.2.2.1.7-.3,1-.9.9-2.1ZM34.4,23.3c.4.5.9.7,1.4.5.1,0,.2-.3.2-.4,0-.1-.2-.3-.3-.3-.4,0-.8.1-1.3.2ZM51,64.8c.2,0,.3,0,.3,0,.1-.1.3-.3.4-.4,0,0-.2-.2-.2-.2-.2.1-.3.2-.5.4,0,0,0,.1,0,.3ZM151.4,63c-.2.2-.3.4-.3.5.1.1.3.2.5.3,0,0,.2-.2.2-.2,0-.2-.2-.3-.3-.6ZM87.7,73.1c.1,0,.2-.1.3-.2,0-.1-.2-.2-.3-.3,0,0-.2,0-.2.1,0,.1.1.2.2.4ZM133.2,8c0-.1,0-.2-.1-.3,0,0-.2,0-.3,0,0,0,0,.2.2.2,0,0,.2,0,.2,0ZM33.1,23.5s0,0,.1,0c0,0-.2-.1-.2-.2,0,0,0,0-.1,0,0,0,.1,0,.2.1ZM138.4,11.2s0,0,0-.1c0,0-.1,0-.2,0,0,0,0,.1.1.2,0,0,0,0,.1,0ZM33.5,21.9c0,0-.2.1-.2.2,0,0,0,.1.1,0,0,0,.2,0,.2-.1,0,0,0,0-.1-.1ZM118.5,27.6s0,0,0,0c0,0,0,0-.1,0,0,0,0,0,0,0,0,0,0,0,.1,0ZM136.8,9.9h0c0,0,.1,0,.1,0h-.1ZM51.3,41.6s0,0,0,.1c0,0,.1,0,.2,0,0,0,0-.1,0-.2,0,0,0,0-.1,0ZM134.8,8.4s0,0,0-.1c0,0,0,0-.1,0,0,0,0,.1,0,.2,0,0,0,0,.1,0ZM51.4,42.3s0,0,.1,0c0,0,0,0,0-.1,0,0,0,0-.1,0,0,0,0,0,0,.1ZM53.9,42.9s0,0,.1,0c0,0,0,0,0-.1,0,0,0,0-.1,0,0,0,0,0,0,0ZM5.5,58.6c0,0-.1,0-.2,0,0,0,.1,0,.2,0,0,0,0,0,0-.1Z" fill="#fff"/>
  </g>
</svg>