<?xml version="1.0" encoding="UTF-8"?>
<svg xmlns="http://www.w3.org/2000/svg" viewBox="0 17 119.3 15">
  <g>
    <g>
      <path d="M1.4,30.3c.5.6,1.2,1.1,2.1,1.4.9.3,2,.5,3.3.5s2.4-.2,3.3-.5c.9-.3,1.6-.8,2.1-1.4.5-.6.9-1.4,1.1-2.3.2-.9.3-2,.3-3.2s-.1-2.4-.3-3.4c-.2-.9-.6-1.7-1.1-2.3-.5-.6-1.2-1.1-2.1-1.3-.9-.3-1.9-.4-3.2-.4s-2.3.1-3.2.4c-.9.3-1.5.7-2.1,1.3-.5.6-.9,1.4-1.1,2.3-.2.9-.3,2.1-.3,3.4s0,2.3.3,3.2c.2.9.6,1.7,1.1,2.3ZM4.9,22.4c0-.5.1-.8.4-1,.3-.1.7-.2,1.3-.2h1.9v5.9c0,.5-.1.8-.4,1-.3.1-.7.2-1.4.2h-1.9v-5.9Z" fill="#fff"/>
      <polygon points="22.9 22.6 19.5 22.6 19.5 17.6 15 17.6 15 31.8 19.5 31.8 19.5 26.8 22.9 26.8 22.9 31.8 27.5 31.8 27.5 17.6 22.9 17.6 22.9 22.6" fill="#fff"/>
      <polygon points="30.2 26.3 34 26.3 34.2 23.7 34.3 17.6 29.9 17.6 30 23.7 30.2 26.3" fill="#fff"/>
      <path d="M33.7,28.1c-.4-.4-.9-.6-1.6-.6s-1.2.2-1.6.6c-.4.4-.6,1-.6,1.6s.2,1.2.6,1.6c.4.4,1,.6,1.6.6s1.2-.2,1.6-.6c.4-.4.6-1,.6-1.6s-.2-1.2-.6-1.6Z" fill="#fff"/>
    </g>
    <path d="M46,24.6v-.4c.6-.2,1.1-.5,1.5-1.1.4-.5.5-1.3.5-2.4s-.3-1.8-.9-2.3c-.6-.5-1.6-.8-2.9-.8h-7.4v14.2h8.2c1.3,0,2.2-.3,2.8-1,.6-.7.9-1.6.9-2.7,0-2.2-.9-3.2-2.7-3.5ZM41.4,20.7h1.4c.6,0,.8.4.8,1.1s-.3,1.1-.9,1.1h-1.4v-2.1ZM43.2,28.5h-1.7v-2.3h1.8c.6,0,.9.4.9,1.2s-.3,1.2-1,1.2Z" fill="#fff"/>
    <path d="M62.3,22.6c0-3.3-1.6-5-4.9-5h-7.1v14.2h4.5v-4.2h1l1.9,4.2h5l-2.5-4.7c1.4-.7,2.1-2.2,2.1-4.5ZM57.5,23.1c0,.4-.1.7-.4.8-.2.1-.6.2-1.2.2h-1v-2.8h1c.6,0,1,0,1.2.2.2.1.4.4.4.8v.9Z" fill="#fff"/>
    <polygon points="86.2 17.6 84.6 24.8 84.2 24.8 82.5 17.6 76.6 17.6 75.7 31.8 80.5 31.8 80.7 24.9 81.1 24.9 82.6 31.8 86.1 31.8 87.6 24.9 88 24.9 88.2 31.8 93 31.8 92.1 17.6 86.2 17.6" fill="#fff"/>
    <polygon points="99.2 26.4 103.8 26.4 103.8 23.2 99.2 23.2 99.2 21.2 104.6 21.2 104.6 17.6 94.7 17.6 94.7 31.8 104.8 31.8 104.8 28.2 99.2 28.2 99.2 26.4" fill="#fff"/>
    <polygon points="114.8 23.5 114.4 23.5 111 17.6 106.7 17.6 106.7 31.8 111.3 31.8 111.3 25.9 111.7 25.9 115 31.8 119.3 31.8 119.3 17.6 114.8 17.6 114.8 23.5" fill="#fff"/>
    <polygon points="68.8 26.4 73.3 26.4 73.3 23.2 68.8 23.2 68.8 21.2 74.2 21.2 74.2 17.6 64.3 17.6 64.3 31.8 74.4 31.8 74.4 28.2 68.8 28.2 68.8 26.4" fill="#fff"/>
  </g>
</svg>
