<?xml version="1.0" encoding="UTF-8"?>
<svg id="Layer_1" xmlns="http://www.w3.org/2000/svg" version="1.1" viewBox="150 300 545 72" fill="#fff">
  <g>
    <path d="M158.89,361.55c2.3,2.78,5.39,4.86,9.27,6.25,3.89,1.39,8.77,2.08,14.67,2.08s10.78-.69,14.67-2.08c3.88-1.39,6.97-3.47,9.27-6.25,2.3-2.77,3.9-6.25,4.8-10.41.9-4.17,1.36-9.03,1.36-14.59,0-5.83-.5-10.87-1.49-15.09-1-4.22-2.67-7.69-5.02-10.42-2.35-2.72-5.44-4.73-9.27-6.03-3.83-1.31-8.6-1.95-14.33-1.95s-10.43.65-14.28,1.95c-3.86,1.3-6.96,3.32-9.31,6.03-2.35,2.72-4.03,6.19-5.02,10.42-.99,4.22-1.48,9.26-1.48,15.09s.45,10.42,1.36,14.59c.91,4.16,2.51,7.64,4.8,10.41ZM174.67,325.92c0-2.32.62-3.81,1.87-4.46,1.25-.65,3.23-.98,5.96-.98h8.59v26.53c0,2.32-.61,3.81-1.83,4.46-1.22.65-3.25.98-6.08.98h-8.5v-26.53Z"/>
    <polygon points="255.78 327.11 240.47 327.11 240.47 304.58 220.07 304.58 220.07 368.35 240.47 368.35 240.47 345.82 255.78 345.82 255.78 368.35 276.18 368.35 276.18 304.58 255.78 304.58 255.78 327.11"/>
    <polygon points="288.62 343.84 305.45 343.84 306.33 331.82 306.78 304.58 287.3 304.58 287.74 331.82 288.62 343.84"/>
    <path d="M304.22,351.83c-1.9-1.86-4.27-2.78-7.13-2.78s-5.25.93-7.18,2.78c-1.93,1.86-2.89,4.29-2.89,7.29s.96,5.25,2.89,7.18c1.93,1.93,4.33,2.9,7.18,2.9s5.23-.94,7.13-2.79c1.89-1.86,2.84-4.28,2.84-7.29s-.95-5.43-2.84-7.29Z"/>
  </g>
  <path d="M359.44,335.81v-1.81c2.83-.8,5.07-2.42,6.71-4.89,1.64-2.46,2.47-5.99,2.47-10.58s-1.31-7.99-3.91-10.37c-2.61-2.38-6.97-3.57-13.09-3.57h-33.07v63.77h36.64c5.67,0,9.85-1.54,12.54-4.63,2.7-3.09,4.04-7.18,4.04-12.29,0-9.8-4.11-14.2-12.33-15.61ZM338.95,318.52h6.46c2.5,0,3.74,1.59,3.74,4.76s-1.3,4.76-3.91,4.76h-6.29v-9.52ZM346.77,353.39h-7.82v-10.46h7.99c2.77,0,4.16,1.73,4.16,5.19s-1.44,5.28-4.33,5.28Z"/>
  <path d="M432.98,326.94c0-14.91-7.31-22.36-21.94-22.36h-32.14v63.77h20.4v-18.96h4.42l8.33,18.96h22.45l-11.05-21.26c6.35-3.23,9.53-9.95,9.53-20.15ZM411.05,329.41c0,1.82-.55,2.98-1.66,3.49-1.11.51-2.91.76-5.4.76h-4.68v-12.75h4.68c2.49,0,4.29.25,5.4.76,1.11.51,1.66,1.68,1.66,3.49v4.25Z"/>
  <polygon points="540.28 304.58 532.9 337.06 531.09 337.06 523.7 304.58 497.09 304.58 493.18 368.35 514.52 368.35 515.4 337.4 517.22 337.4 524.21 368.35 539.77 368.35 546.69 337.4 548.5 337.4 549.47 368.35 570.8 368.35 566.98 304.58 540.28 304.58"/>
  <polygon points="598.86 344.29 619.27 344.29 619.27 329.49 598.86 329.49 598.86 320.9 622.95 320.9 622.95 304.58 578.46 304.58 578.46 368.35 623.86 368.35 623.86 352.02 598.86 352.02 598.86 344.29"/>
  <polygon points="668.75 331.22 666.94 331.22 651.75 304.58 632.53 304.58 632.53 368.35 652.94 368.35 652.94 341.71 654.75 341.71 669.94 368.35 689.16 368.35 689.16 304.58 668.75 304.58 668.75 331.22"/>
  <polygon points="462.06 344.29 482.47 344.29 482.47 329.49 462.06 329.49 462.06 320.9 486.15 320.9 486.15 304.58 441.66 304.58 441.66 368.35 487.06 368.35 487.06 352.02 462.06 352.02 462.06 344.29"/>
</svg>
